<?xml version="1.0" standalone="yes"?>
<svg xmlns="http://www.w3.org/2000/svg" width="250%" height="250%" viewBox="220 150 281 419">
<!--<path style="fill:#010101; stroke:none;" d="M0 0L0 519L481 519L481 0L0 0z"/>-->
<path style="fill:#898cae; stroke:none;" d="M234 173L234 174L246 174L234 173z"/>
<path style="fill:#d1d1d1; stroke:none;" d="M246 173L247 174L246 173M227 174L228 175L227 174z"/>
<path style="fill:#898cae; stroke:none;" d="M228 174L229 175L228 174z"/>
<path style="fill:#505471; stroke:none;" d="M229 174L230 175L229 174z"/>
<path style="fill:#343647; stroke:none;" d="M230.667 174.333L231.333 174.667L230.667 174.333M249.667 174.333L250.333 174.667L249.667 174.333z"/>
<path style="fill:#505471; stroke:none;" d="M251 174L252 175L251 174z"/>
<path style="fill:#898cae; stroke:none;" d="M252 174L253 175L252 174z"/>
<path style="fill:#d1d1d1; stroke:none;" d="M253 174L254 175L253 174M223 175L224 176L223 175z"/>
<path style="fill:#898cae; stroke:none;" d="M224 175L225 176L224 175z"/>
<path style="fill:#343647; stroke:none;" d="M225 175L226 176L225 175M255 175L256 176L255 175z"/>
<path style="fill:#898cae; stroke:none;" d="M256 175L257 176L256 175z"/>
<path style="fill:#d1d1d1; stroke:none;" d="M257 175L258 176L257 175M220 176L221 177L220 176z"/>
<path style="fill:#505471; stroke:none;" d="M221 176L222 177L221 176M259 176L260 177L259 176z"/>
<path style="fill:#d1d1d1; stroke:none;" d="M260 176L261 177L260 176M217 177L218 178L217 177z"/>
<path style="fill:#505471; stroke:none;" d="M218 177L219 178L218 177z"/>
<path style="fill:#343647; stroke:none;" d="M232 177L232 178L236 178L232 177z"/>
<path style="fill:#505471; stroke:none;" d="M219 180C212.968 187.817 203.798 192.884 197.761 201C183.216 220.554 186.11 238.655 185 261C187.714 263.698 189.22 266.212 188 270C192.671 272.176 198.62 284.868 200 290C204.73 289.831 213.027 297.664 218 299.667C233.223 305.798 254.693 304.583 269 296.833C283.398 289.034 293.722 269.297 297.333 254C298.497 249.07 301.241 237.312 296 235L296 233L299 228L295 229C302.94 198.386 269.724 178.664 242 177.093C234.167 176.65 226.663 180.089 219 180z"/>
<path style="fill:#343647; stroke:none;" d="M245 177L245 178L249 178L245 177z"/>
<path style="fill:#505471; stroke:none;" d="M262 177L263 178L262 177z"/>
<path style="fill:#d1d1d1; stroke:none;" d="M263 177L264 178L263 177z"/>
<path style="fill:#898cae; stroke:none;" d="M215 178L216 179L215 178z"/>
<path style="fill:#343647; stroke:none;" d="M216 178L217 179L216 178M226.667 178.333L227.333 178.667L226.667 178.333M252 178L252 179L255 179L252 178M264 178L265 179L264 178z"/>
<path style="fill:#898cae; stroke:none;" d="M265 178L266 179L265 178M212 179L213 180L212 179z"/>
<path style="fill:#343647; stroke:none;" d="M213 179L214 180L213 179M221 179L221 180L224 180L221 179M257.667 179.333L258.333 179.667L257.667 179.333M267 179L268 180L267 179z"/>
<path style="fill:#898cae; stroke:none;" d="M268 179L269 180L268 179z"/>
<path style="fill:#505471; stroke:none;" d="M210 180L211 181L210 180z"/>
<path style="fill:#343647; stroke:none;" d="M218 180L219 181L218 180z"/>
<path style="fill:#898cae; stroke:none;" d="M220 180L221 181L220 180z"/>
<path style="fill:#343647; stroke:none;" d="M261.667 180.333L262.333 180.667L261.667 180.333z"/>
<path style="fill:#505471; stroke:none;" d="M270 180L271 181L270 180M208 181L209 182L208 181M216 181L217 182L216 181z"/>
<path style="fill:#898cae; stroke:none;" d="M201 289C197.197 283.178 180.351 266.457 186 260C182.09 239.248 185.091 218.068 198.518 201C204.486 193.413 212.976 188.295 219 181C183.669 191.178 169.035 234.194 182.721 266C186.339 274.409 192.529 284.872 201 289z"/>
<path style="fill:#343647; stroke:none;" d="M264 181L265 182L264 181z"/>
<path style="fill:#505471; stroke:none;" d="M272 181L273 182L272 181z"/>
<path style="fill:#898cae; stroke:none;" d="M206 182L207 183L206 182z"/>
<path style="fill:#343647; stroke:none;" d="M207 182L208 183L207 182M213 182L214 183L213 182z"/>
<path style="fill:#505471; stroke:none;" d="M214 182L215 183L214 182z"/>
<path style="fill:#343647; stroke:none;" d="M266 182L267 183L266 182M273 182L274 183L273 182z"/>
<path style="fill:#d1d1d1; stroke:none;" d="M274 182L275 183L274 182z"/>
<path style="fill:#505471; stroke:none;" d="M205 183L206 184L205 183z"/>
<path style="fill:#343647; stroke:none;" d="M211 183L212 184L211 183z"/>
<path style="fill:#505471; stroke:none;" d="M212 183L213 184L212 183z"/>
<path style="fill:#343647; stroke:none;" d="M268 183L269 184L268 183z"/>
<path style="fill:#505471; stroke:none;" d="M275 183L276 184L275 183z"/>
<path style="fill:#898cae; stroke:none;" d="M203 184L204 185L203 184z"/>
<path style="fill:#343647; stroke:none;" d="M209 184L210 185L209 184z"/>
<path style="fill:#505471; stroke:none;" d="M210 184L211 185L210 184z"/>
<path style="fill:#343647; stroke:none;" d="M270 184L271 185L270 184z"/>
<path style="fill:#898cae; stroke:none;" d="M277 184L278 185L277 184z"/>
<path style="fill:#505471; stroke:none;" d="M202 185L203 186L202 185z"/>
<path style="fill:#343647; stroke:none;" d="M208 185L209 186L208 185M272 185L273 186L272 185z"/>
<path style="fill:#505471; stroke:none;" d="M278 185L279 186L278 185z"/>
<path style="fill:#d1d1d1; stroke:none;" d="M200 186L201 187L200 186z"/>
<path style="fill:#505471; stroke:none;" d="M207 186L208 187L207 186z"/>
<path style="fill:#343647; stroke:none;" d="M273 186L274 187L273 186z"/>
<path style="fill:#d1d1d1; stroke:none;" d="M280 186L281 187L280 186z"/>
<path style="fill:#898cae; stroke:none;" d="M199 187L200 188L199 187z"/>
<path style="fill:#343647; stroke:none;" d="M205 187L206 188L205 187M275 187L276 188L275 187z"/>
<path style="fill:#898cae; stroke:none;" d="M281 187L282 188L281 187z"/>
<path style="fill:#505471; stroke:none;" d="M198 188L199 189L198 188M204 188L205 189L204 188z"/>
<path style="fill:#343647; stroke:none;" d="M276 188L277 189L276 188z"/>
<path style="fill:#505471; stroke:none;" d="M282 188L283 189L282 188z"/>
<path style="fill:#343647; stroke:none;" d="M197 189L198 190L197 189M202 189L203 190L202 189M278 189L279 190L278 189M283 189L284 190L283 189z"/>
<path style="fill:#505471; stroke:none;" d="M196 190L197 191L196 190M201 190L202 191L201 190z"/>
<path style="fill:#343647; stroke:none;" d="M230 190L230 191L234 191L230 190z"/>
<path style="fill:#010101; stroke:none;" d="M193 219L191 224L189.514 242L192 261C195.099 261 196.309 265.217 196 268L198 268L198 269L197 270L200 274C203.459 273.308 207.142 280.571 212 283C223.25 288.625 238.355 293.411 252 290C259.536 288.116 270.096 283.248 276 278C279.081 275.261 281.233 269.308 284 270L285 268L285 264L288 264L288 263L286 264L286 263L287 260L288 262L289 262C288.573 257.037 289.52 252.64 293 249L293 248C289.453 248.709 290.389 242.347 293 243L289 220C285.437 220 285.388 215.909 286 213L284 211L280 205L279 204C271.196 202.57 264.198 194.632 256 192.209C237.491 186.738 217.268 191.001 203.5 204.598C199.2 208.845 196.991 214.623 193 219z"/>
<path style="fill:#343647; stroke:none;" d="M246 190L246 191L249 191L246 190M279 190L280 191L279 190z"/>
<path style="fill:#505471; stroke:none;" d="M284 190L285 191L284 190z"/>
<path style="fill:#d1d1d1; stroke:none;" d="M194 191L195 192L194 191z"/>
<path style="fill:#343647; stroke:none;" d="M195 191L196 192L195 191M199 191L200 192L199 191M223 191L223 192L226 192L223 191M253.667 191.333L254.333 191.667L253.667 191.333M280 191L281 192L280 191M285 191L286 192L285 191z"/>
<path style="fill:#d1d1d1; stroke:none;" d="M286 191L287 192L286 191M193 192L194 193L193 192z"/>
<path style="fill:#505471; stroke:none;" d="M198 192L199 193L198 192z"/>
<path style="fill:#343647; stroke:none;" d="M220.667 192.333L221.333 192.667L220.667 192.333M257 192L258 193L257 192M282 192L283 193L282 192z"/>
<path style="fill:#d1d1d1; stroke:none;" d="M287 192L288 193L287 192M192 193L193 194L192 193z"/>
<path style="fill:#505471; stroke:none;" d="M197 193L198 194L197 193z"/>
<path style="fill:#343647; stroke:none;" d="M218.667 193.333L219.333 193.667L218.667 193.333M233 193L233 194L236 194L233 193z"/>
<path style="fill:#505471; stroke:none;" d="M219 198C217.537 203.218 211.968 206.688 208.761 211C203.425 218.173 199.749 227.017 199.09 236C198.469 244.471 199.001 252.855 201.438 261C210.04 289.743 247.037 293.087 268.91 277.756C291.269 262.085 292.182 228.731 275.536 209.015C269.832 202.258 261.425 197.554 253 195.042C239.787 191.103 231.319 196.763 219 198z"/>
<path style="fill:#343647; stroke:none;" d="M245 193L245 194L248 194L245 193M259 193L260 194L259 193M283 193L284 194L283 193z"/>
<path style="fill:#d1d1d1; stroke:none;" d="M288 193L289 194L288 193M191 194L192 195L191 194z"/>
<path style="fill:#343647; stroke:none;" d="M196 194L197 195L196 194M216.667 194.333L217.333 194.667L216.667 194.333M228.667 194.333L229.333 194.667L228.667 194.333M251.667 194.333L252.333 194.667L251.667 194.333M262 194L263 195L262 194M284 194L285 195L284 194z"/>
<path style="fill:#d1d1d1; stroke:none;" d="M289 194L290 195L289 194z"/>
<path style="fill:#343647; stroke:none;" d="M195 195L196 196L195 195M214 195L215 196L214 195M225 195L226 196L225 195M254.667 195.333L255.333 195.667L254.667 195.333M264 195L265 196L264 195z"/>
<path style="fill:#d1d1d1; stroke:none;" d="M290 195L291 196L290 195z"/>
<path style="fill:#343647; stroke:none;" d="M190 196L189 198L190 196M194 196L195 197L194 196M208 200L214 197L208 200M222 196L223 197L222 196M257.667 196.333L258.333 196.667L257.667 196.333M266 196L267 197L266 196M193 197L194 198L193 197M220 197L221 198L220 197z"/>
<path style="fill:#898cae; stroke:none;" d="M221.667 197.333L222.333 197.667L221.667 197.333z"/>
<path style="fill:#343647; stroke:none;" d="M259 197L260 198L259 197M268 197L269 198L268 197M291 197L292 198L291 197z"/>
<path style="fill:#505471; stroke:none;" d="M188 198L189 199L188 198z"/>
<path style="fill:#343647; stroke:none;" d="M218 198L219 199L218 198z"/>
<path style="fill:#898cae; stroke:none;" d="M220 198L221 199L220 198z"/>
<path style="fill:#343647; stroke:none;" d="M261 198L262 199L261 198M270 198L271 199L270 198z"/>
<path style="fill:#505471; stroke:none;" d="M292 198L293 199L292 198z"/>
<path style="fill:#898cae; stroke:none;" d="M187 199L188 200L187 199z"/>
<path style="fill:#505471; stroke:none;" d="M217 199L218 200L217 199z"/>
<path style="fill:#898cae; stroke:none;" d="M204 270L205 270C199.022 252.329 195.275 234.167 205.454 217C209.473 210.221 215.52 205.359 220 199C189.87 207.929 188.811 248.609 204 270z"/>
<path style="fill:#343647; stroke:none;" d="M263 199L264 200L263 199M271 199L278 205L271 199z"/>
<path style="fill:#898cae; stroke:none;" d="M293 199L294 200L293 199z"/>
<path style="fill:#d1d1d1; stroke:none;" d="M186 200L187 201L186 200z"/>
<path style="fill:#505471; stroke:none;" d="M191 200L192 201L191 200z"/>
<path style="fill:#343647; stroke:none;" d="M207 200L205 203L207 200M215 200L216 201L215 200M265 200L266 201L265 200M289 200L290 201L289 200z"/>
<path style="fill:#d1d1d1; stroke:none;" d="M294 200L295 201L294 200z"/>
<path style="fill:#343647; stroke:none;" d="M186 201L187 202L186 201z"/>
<path style="fill:#505471; stroke:none;" d="M190 201L191 202L190 201z"/>
<path style="fill:#343647; stroke:none;" d="M290 201L291 202L290 201M294 201L295 202L294 201z"/>
<path style="fill:#505471; stroke:none;" d="M185 202L186 203L185 202z"/>
<path style="fill:#343647; stroke:none;" d="M189 202L190 203L189 202M212 202L213 203L212 202M268 202L269 203L268 202M291 202L292 203L291 202z"/>
<path style="fill:#505471; stroke:none;" d="M295 202L296 203L295 202z"/>
<path style="fill:#898cae; stroke:none;" d="M184 203L185 204L184 203z"/>
<path style="fill:#343647; stroke:none;" d="M188 203L189 204L188 203M203.667 203.333L204.333 203.667L203.667 203.333M210 203L211 204L210 203z"/>
<path style="fill:#505471; stroke:none;" d="M211 203L212 204L211 203z"/>
<path style="fill:#343647; stroke:none;" d="M269 203L270 204L269 203z"/>
<path style="fill:#898cae; stroke:none;" d="M296 203L297 204L296 203z"/>
<path style="fill:#343647; stroke:none;" d="M202 204L196 214L197 214L202 204z"/>
<path style="fill:#505471; stroke:none;" d="M209 204L210 205L209 204z"/>
<path style="fill:#343647; stroke:none;" d="M271 204L272 205L271 204M279 204L280 205L279 204z"/>
<path style="fill:#d1d1d1; stroke:none;" d="M297 204L298 205L297 204z"/>
<path style="fill:#505471; stroke:none;" d="M183 205L184 206L183 205M187 205L188 206L187 205z"/>
<path style="fill:#343647; stroke:none;" d="M208 205L209 206L208 205M272 205L273 206L272 205M278 205L279 206L278 205M280 205L284 211L284 214L285 214L282 209L280 205M293 205L294 206L293 205z"/>
<path style="fill:#505471; stroke:none;" d="M297 205L298 206L297 205z"/>
<path style="fill:#343647; stroke:none;" d="M186 206L187 207L186 206M207 206L208 207L207 206M236 206L236 207L245 207L236 206M294 206L295 207L294 206z"/>
<path style="fill:#505471; stroke:none;" d="M182 207L183 208L182 207z"/>
<path style="fill:#343647; stroke:none;" d="M206 207L207 208L206 207M231.667 207.333L232.333 207.667L231.667 207.333z"/>
<path style="fill:#010101; stroke:none;" d="M218 213L213 217L210 221C209.531 230.924 205.409 239.616 207.529 250C210.602 265.052 228.377 275.22 243 273.829C250.278 273.136 256.175 269.56 263 268L272.667 253L272 223L269 219C257.484 210.979 247.997 204.44 233 207.515C227.647 208.612 223.148 211.809 218 213z"/>
<path style="fill:#343647; stroke:none;" d="M248.667 207.333L249.333 207.667L248.667 207.333M289 207L290 208L289 207z"/>
<path style="fill:#505471; stroke:none;" d="M298 207L299 208L298 207M185 208L186 209L185 208z"/>
<path style="fill:#343647; stroke:none;" d="M228.667 208.333L229.333 208.667L228.667 208.333M252.667 208.333L253.333 208.667L252.667 208.333z"/>
<path style="fill:#010101; stroke:none;" d="M282 208L283 209L282 208z"/>
<path style="fill:#343647; stroke:none;" d="M287.333 208.667L287.667 209.333L287.333 208.667z"/>
<path style="fill:#010101; stroke:none;" d="M288 208C289.225 212.765 292.122 219.334 297 221C296.026 215.539 293.609 209.726 288 208z"/>
<path style="fill:#343647; stroke:none;" d="M295 208L296 209L295 208z"/>
<path style="fill:#d1d1d1; stroke:none;" d="M299 208L300 209L299 208z"/>
<path style="fill:#343647; stroke:none;" d="M181 209L182 210L181 209M184 209L185 210L184 209M224.667 209.333L225.333 209.667L224.667 209.333M255.667 209.333L256.333 209.667L255.667 209.333z"/>
<path style="fill:#505471; stroke:none;" d="M299 209L300 210L299 209z"/>
<path style="fill:#d1d1d1; stroke:none;" d="M180 210L181 211L180 210z"/>
<path style="fill:#505471; stroke:none;" d="M184 210L185 211L184 210z"/>
<path style="fill:#343647; stroke:none;" d="M222.667 210.333L223.333 210.667L222.667 210.333M234 210L235 211L234 210z"/>
<path style="fill:#505471; stroke:none;" d="M235 210L222 227L220 227L218 231C219.778 242.173 217.231 252.376 223.417 262.956C229.663 273.64 248.119 270.855 256.996 265.637C275.965 254.487 274.328 225.136 256 214.529C249.266 210.632 242.461 210.544 235 210z"/>
<path style="fill:#898cae; stroke:none;" d="M237 210L238 211L237 210z"/>
<path style="fill:#343647; stroke:none;" d="M244 210L244 211L247 211L244 210M258.667 210.333L259.333 210.667L258.667 210.333M276 210L277 211L276 210M292 210L293 211L292 210M296 210L297 211L296 210z"/>
<path style="fill:#d1d1d1; stroke:none;" d="M300 210L301 211L300 210z"/>
<path style="fill:#505471; stroke:none;" d="M180 211L181 212L180 211M203 211L204 212L203 211z"/>
<path style="fill:#343647; stroke:none;" d="M218 213L222 211L218 213z"/>
<path style="fill:#505471; stroke:none;" d="M231 211L232 212L231 211z"/>
<path style="fill:#898cae; stroke:none;" d="M225 266C220.021 253.86 217.969 245.058 219 232L215 232L219 222L221 222L222 225L223 225L236 211C208.812 213.389 200.678 253.277 225 266z"/>
<path style="fill:#343647; stroke:none;" d="M249 211L250 212L249 211M260 211L269 219L272 223C270.594 240.916 277.184 251.941 262 267C269.151 266.49 275.048 259.018 275 252C277.874 249.811 277.842 247.364 277 244C279.216 242.382 280.273 237.546 277 237C279.408 225.893 269.89 214.804 260 211M277 211L278 212L277 211M288 211L289 212L288 211M293 211L294 212L293 211z"/>
<path style="fill:#505471; stroke:none;" d="M300 211L301 212L300 211M183 212L184 213L183 212z"/>
<path style="fill:#343647; stroke:none;" d="M202 212L203 213L202 212M228 212L229 213L228 212M251.667 212.333L252.333 212.667L251.667 212.333M289 212L290 213L289 212z"/>
<path style="fill:#d1d1d1; stroke:none;" d="M301 212L302 213L301 212z"/>
<path style="fill:#505471; stroke:none;" d="M179 213L180 214L179 213z"/>
<path style="fill:#343647; stroke:none;" d="M217 213L216 215L218 215L217 213M226 213L227 214L226 213M254 213L255 214L254 213M286 213C285.217 216.186 285.337 219.515 289 220L293 243C290.327 243.445 290.327 247.555 293 248L293 249C288.921 251.906 288.116 257.27 289 262L290 262L292 251C296.6 247.13 296.6 232.87 292 229L291 225C291.556 220.254 289.206 216.424 286 213M290 213L291 214L290 213M294 213L295 214L294 213M297 213L299 217L297 213z"/>
<path style="fill:#505471; stroke:none;" d="M301 213L302 214L301 213z"/>
<path style="fill:#343647; stroke:none;" d="M182 214L183 215L182 214M195.333 214.667L195.667 215.333L195.333 214.667M224 214L225 215L224 214M279 214L280 215L279 214z"/>
<path style="fill:#898cae; stroke:none;" d="M178 215L179 216L178 215z"/>
<path style="fill:#505471; stroke:none;" d="M182 215L183 216L182 215M200 215L201 216L200 215z"/>
<path style="fill:#343647; stroke:none;" d="M213 217L216 215L213 217z"/>
<path style="fill:#505471; stroke:none;" d="M223 215L224 216L223 215z"/>
<path style="fill:#343647; stroke:none;" d="M257 215L258 216L257 215M280 215L281 216L280 215M291 215L292 216L291 215M295 215L296 216L295 215z"/>
<path style="fill:#898cae; stroke:none;" d="M302 215L303 216L302 215z"/>
<path style="fill:#343647; stroke:none;" d="M194 216L193 219L194 216M199 216L200 217L199 216M221 216L222 217L221 216M259 216L260 217L259 216z"/>
<path style="fill:#898cae; stroke:none;" d="M177 217L178 218L177 217z"/>
<path style="fill:#505471; stroke:none;" d="M181 217L182 218L181 217z"/>
<path style="fill:#343647; stroke:none;" d="M212 217L210 221L211 222L212 217M220 217L221 218L220 217M260 217L261 218L260 217M292 217L293 218L292 217M296 217L297 218L296 217z"/>
<path style="fill:#898cae; stroke:none;" d="M303 217L304 218L303 217z"/>
<path style="fill:#343647; stroke:none;" d="M177 218L178 219L177 218z"/>
<path style="fill:#505471; stroke:none;" d="M198 218L199 219L198 218z"/>
<path style="fill:#343647; stroke:none;" d="M219 218L220 219L219 218M261 218L262 219L261 218M282 218L283 219L282 218M299 218L296 224L296 225L299 226L300 233L300 243C297.053 245.576 298.165 249.49 299 253L294 267L278 289L279 290L283 288L282 286C288.041 283.175 294.991 275.957 295 269C307.314 260.277 305.324 229.638 299 218M303 218L304 219L303 218M180 219L181 220L180 219M218 219L219 220L218 219M262 219L263 220L262 219M293.333 219.667L293.667 220.333L293.333 219.667z"/>
<path style="fill:#898cae; stroke:none;" d="M176 220L177 221L176 220z"/>
<path style="fill:#505471; stroke:none;" d="M180 220L181 221L180 220z"/>
<path style="fill:#343647; stroke:none;" d="M192 220L191 224L194 220L192 220M197 220L198 221L197 220M217 220L218 221L217 220M263 220L264 221L263 220z"/>
<path style="fill:#010101; stroke:none;" d="M270 220L271 221L270 220z"/>
<path style="fill:#343647; stroke:none;" d="M283 220L284 221L283 220z"/>
<path style="fill:#898cae; stroke:none;" d="M304 220L305 221L304 220z"/>
<path style="fill:#343647; stroke:none;" d="M176 221L177 222L176 221M209 221C205.519 231.29 204.629 240.144 206 251L207 251L207.468 233L209 221M216 221L217 222L216 221M294.667 221.333L295.333 221.667L294.667 221.333M304 221L305 222L304 221M179 222L180 223L179 222M196 222L197 223L196 222z"/>
<path style="fill:#505471; stroke:none;" d="M218 224L221 223L218 224z"/>
<path style="fill:#010101; stroke:none;" d="M290 222L291 223L290 222z"/>
<path style="fill:#d1d1d1; stroke:none;" d="M175 223L176 224L175 223z"/>
<path style="fill:#505471; stroke:none;" d="M179 223L180 224L179 223M196.333 223.667L196.667 224.333L196.333 223.667M215 223L216 224L215 223z"/>
<path style="fill:#010101; stroke:none;" d="M219 223L216 232L221 223L219 223z"/>
<path style="fill:#343647; stroke:none;" d="M221.333 223.667L221.667 224.333L221.333 223.667M239 223L239 224L242 224L239 223M265 223L266 224L265 223M284.333 223.667L284.667 224.333L284.333 223.667z"/>
<path style="fill:#d1d1d1; stroke:none;" d="M305 223L306 224L305 223z"/>
<path style="fill:#898cae; stroke:none;" d="M175 224L176 225L175 224z"/>
<path style="fill:#343647; stroke:none;" d="M214 224L215 225L214 224M235 224L236 225L235 224z"/>
<path style="fill:#010101; stroke:none;" d="M252 255C254.094 251.168 256.625 247.355 257.467 243C257.989 240.297 257.607 237.617 256.826 235C248.972 208.708 208.408 234.861 229.213 252.362C231.626 254.392 234.947 255.771 238 256.471C243.172 257.656 247.073 255.449 252 255z"/>
<path style="fill:#343647; stroke:none;" d="M246.667 224.333L247.333 224.667L246.667 224.333z"/>
<path style="fill:#010101; stroke:none;" d="M273 224L274 225L273 224M291 224L292 225L291 224M299 224L300 225L299 224z"/>
<path style="fill:#505471; stroke:none;" d="M305 224L306 225L305 224z"/>
<path style="fill:#343647; stroke:none;" d="M175 225L176 226L175 225M190 225L189 231L190 231L192 225L190 225M217 225L218 226L217 225M233 225L234 226L233 225M249.667 225.333L250.333 225.667L249.667 225.333z"/>
<path style="fill:#010101; stroke:none;" d="M295 225L298 229L298 225L295 225z"/>
<path style="fill:#505471; stroke:none;" d="M298 225L299 226L298 225z"/>
<path style="fill:#343647; stroke:none;" d="M305 225L306 226L305 225M178 226L179 227L178 226M195 226L196 227L195 226M213 226L214 227L213 226z"/>
<path style="fill:#898cae; stroke:none;" d="M221 226L222 227L221 226z"/>
<path style="fill:#343647; stroke:none;" d="M231 226L232 227L231 226M251 226C258.958 237.795 256.162 241.402 253 254L256 250L259 249L258 246C264.799 240.058 257.129 228.866 251 226M267 226L268 227L267 226z"/>
<path style="fill:#010101; stroke:none;" d="M274 226L275 227L274 226M299.333 226.667L299.667 227.333L299.333 226.667z"/>
<path style="fill:#d1d1d1; stroke:none;" d="M174 227L175 228L174 227z"/>
<path style="fill:#505471; stroke:none;" d="M178 227L179 228L178 227M195 227L196 228L195 227z"/>
<path style="fill:#343647; stroke:none;" d="M216 227L217 228L216 227M237 227L238 228L237 227z"/>
<path style="fill:#505471; stroke:none;" d="M238 227L233.333 237L232 251C236.885 250.826 241.428 255.304 247 251.667C260.552 242.82 250.736 228.005 238 227z"/>
<path style="fill:#343647; stroke:none;" d="M241 227L241 228L244 228L241 227M285 227L286 228L285 227z"/>
<path style="fill:#d1d1d1; stroke:none;" d="M306 227L307 228L306 227z"/>
<path style="fill:#898cae; stroke:none;" d="M174 228L175 229L174 228z"/>
<path style="fill:#505471; stroke:none;" d="M212 228L213 229L212 228z"/>
<path style="fill:#343647; stroke:none;" d="M219 228L220 229L219 228z"/>
<path style="fill:#898cae; stroke:none;" d="M220 228L221 229L220 228z"/>
<path style="fill:#343647; stroke:none;" d="M228 228L229 229L228 228M234 228L235 229L234 228z"/>
<path style="fill:#898cae; stroke:none;" d="M233 250C232.027 242.126 232.874 234.676 239 229C227.671 225.127 224.655 244.877 233 250z"/>
<path style="fill:#343647; stroke:none;" d="M246 228L247 229L246 228M268 228L269 229L268 228z"/>
<path style="fill:#010101; stroke:none;" d="M292 228L293 229L292 228z"/>
<path style="fill:#343647; stroke:none;" d="M295 228L296 229L295 228z"/>
<path style="fill:#898cae; stroke:none;" d="M306 228L307 229L306 228z"/>
<path style="fill:#505471; stroke:none;" d="M174 229L175 230L174 229z"/>
<path style="fill:#343647; stroke:none;" d="M194.333 229.667L194.667 230.333L194.333 229.667M215.333 229.667L215.667 230.333L215.333 229.667z"/>
<path style="fill:#898cae; stroke:none;" d="M219.333 229.667L219.667 230.333L219.333 229.667z"/>
<path style="fill:#343647; stroke:none;" d="M227 229L228 230L227 229M232 229L233 230L232 229z"/>
<path style="fill:#505471; stroke:none;" d="M306 229L307 230L306 229z"/>
<path style="fill:#343647; stroke:none;" d="M174 230L175 231L174 230M177 230L177 233L178 233L177 230M211 230L212 231L211 230M231 230L232 231L231 230M249 230L250 231L249 230M269.333 230.667L269.667 231.333L269.333 230.667M286.333 230.667L286.667 231.333L286.333 230.667M306 230L307 231L306 230z"/>
<path style="fill:#505471; stroke:none;" d="M194 231L195 232L194 231M211 231L212 232L211 231M215 231L216 232L215 231z"/>
<path style="fill:#343647; stroke:none;" d="M230 231L231 232L230 231M250 231L251 232L250 231M188 232C187.812 236.38 185.346 242.806 189 246L190 252L191 255L192 261L190 232L188 232M225 232L226 233L225 232z"/>
<path style="fill:#010101; stroke:none;" d="M297 232L297 236L300 233L297 232z"/>
<path style="fill:#d1d1d1; stroke:none;" d="M173.333 233.667L173.667 234.333L173.333 233.667z"/>
<path style="fill:#505471; stroke:none;" d="M177.333 233.667L177.667 234.333L177.333 233.667z"/>
<path style="fill:#343647; stroke:none;" d="M210.333 233.667L210.667 234.333L210.333 233.667M246 233L247 234L246 233z"/>
<path style="fill:#010101; stroke:none;" d="M247 233L247 237L248 237L247 233z"/>
<path style="fill:#343647; stroke:none;" d="M248 233L249 234L248 233M296.333 233.667L296.667 234.333L296.333 233.667z"/>
<path style="fill:#d1d1d1; stroke:none;" d="M307.333 233.667L307.667 234.333L307.333 233.667z"/>
<path style="fill:#343647; stroke:none;" d="M214.667 234.333L215.333 234.667L214.667 234.333z"/>
<path style="fill:#505471; stroke:none;" d="M216 234L217 235L216 234z"/>
<path style="fill:#343647; stroke:none;" d="M228 234L229 235L228 234M252.333 234.667L252.667 235.333L252.333 234.667M270 234L270 237L271 237L270 234z"/>
<path style="fill:#898cae; stroke:none;" d="M173 235L173 245L174 245L173 235z"/>
<path style="fill:#343647; stroke:none;" d="M193 235L193 245L194 245L193 235z"/>
<path style="fill:#505471; stroke:none;" d="M210.333 235.667L210.667 236.333L210.333 235.667M213 235L213 238L214 238L213 235z"/>
<path style="fill:#010101; stroke:none;" d="M214 235L214 239L217 239L217 235L214 235z"/>
<path style="fill:#343647; stroke:none;" d="M224 235L225 236L224 235z"/>
<path style="fill:#010101; stroke:none;" d="M277.333 235.667L277.667 236.333L277.333 235.667z"/>
<path style="fill:#898cae; stroke:none;" d="M307 235L307 245L308 245L307 235z"/>
<path style="fill:#010101; stroke:none;" d="M205 236L205 241L206 241L205 236z"/>
<path style="fill:#343647; stroke:none;" d="M246 236L247 237L246 236M248 236L249 237L248 236M227 237L228 238L227 237M253 237L253 243L254 243L253 237M287 237L287 244L288 244L287 237z"/>
<path style="fill:#505471; stroke:none;" d="M227 238L227 242L228 242L227 238z"/>
<path style="fill:#343647; stroke:none;" d="M247 238L248 239L247 238z"/>
<path style="fill:#010101; stroke:none;" d="M248 238L247 247C250.889 244.612 250.981 241.287 248 238z"/>
<path style="fill:#343647; stroke:none;" d="M249 238L250 239L249 238z"/>
<path style="fill:#505471; stroke:none;" d="M214.667 239.333L215.333 239.667L214.667 239.333z"/>
<path style="fill:#343647; stroke:none;" d="M223.333 239.667L223.667 240.333L223.333 239.667M250.333 239.667L250.667 240.333L250.333 239.667z"/>
<path style="fill:#010101; stroke:none;" d="M214 241C213.611 244.261 213.689 246.027 217 247L216 241L214 241z"/>
<path style="fill:#505471; stroke:none;" d="M216 241L217 242L216 241z"/>
<path style="fill:#010101; stroke:none;" d="M299.333 241.667L299.667 242.333L299.333 241.667z"/>
<path style="fill:#343647; stroke:none;" d="M213 242L214 243L213 242M216 242L216 245L217 245L216 242M227.333 242.667L227.667 243.333L227.333 242.667z"/>
<path style="fill:#010101; stroke:none;" d="M188 243L189 244L188 243z"/>
<path style="fill:#343647; stroke:none;" d="M250.333 243.667L250.667 244.333L250.333 243.667M270 243L270 246L271 246L270 243z"/>
<path style="fill:#505471; stroke:none;" d="M210 244L211 245L210 244z"/>
<path style="fill:#343647; stroke:none;" d="M213.333 244.667L213.667 245.333L213.333 244.667M246.333 244.667L246.667 245.333L246.333 244.667z"/>
<path style="fill:#010101; stroke:none;" d="M277 244L278 245L277 244z"/>
<path style="fill:#d1d1d1; stroke:none;" d="M173.333 245.667L173.667 246.333L173.333 245.667z"/>
<path style="fill:#505471; stroke:none;" d="M177 245L177 248L178 248L177 245z"/>
<path style="fill:#343647; stroke:none;" d="M210.333 245.667L210.667 246.333L210.333 245.667M224 245L225 246L224 245z"/>
<path style="fill:#505471; stroke:none;" d="M228 245L229 246L228 245z"/>
<path style="fill:#343647; stroke:none;" d="M252 245L253 246L252 245z"/>
<path style="fill:#d1d1d1; stroke:none;" d="M307.333 245.667L307.667 246.333L307.333 245.667z"/>
<path style="fill:#010101; stroke:none;" d="M188.333 246.667L188.667 247.333L188.333 246.667z"/>
<path style="fill:#505471; stroke:none;" d="M213 246L214 247L213 246z"/>
<path style="fill:#343647; stroke:none;" d="M249 246L250 247L249 246z"/>
<path style="fill:#010101; stroke:none;" d="M258 246L259 247L258 246z"/>
<path style="fill:#505471; stroke:none;" d="M214 247L215 248L214 247z"/>
<path style="fill:#343647; stroke:none;" d="M215 247L216 248L215 247M225 247L226 248L225 247M229 247L230 248L229 247M251 247L252 248L251 247M177.333 248.667L177.667 249.333L177.333 248.667z"/>
<path style="fill:#505471; stroke:none;" d="M194.333 248.667L194.667 249.333L194.333 248.667M230 248L231 249L230 248z"/>
<path style="fill:#343647; stroke:none;" d="M250 248L251 249L250 248z"/>
<path style="fill:#010101; stroke:none;" d="M257 248L258 249L257 248z"/>
<path style="fill:#343647; stroke:none;" d="M286 248L286 251L287 251L286 248M174.333 249.667L174.667 250.333L174.333 249.667z"/>
<path style="fill:#505471; stroke:none;" d="M211 249L212 250L211 249z"/>
<path style="fill:#343647; stroke:none;" d="M226 249L227 250L226 249M249 249L250 250L249 249M269 249L270 250L269 249M306.333 249.667L306.667 250.333L306.333 249.667M194 250L195 251L194 250z"/>
<path style="fill:#898cae; stroke:none;" d="M233 250L234 251L233 250z"/>
<path style="fill:#343647; stroke:none;" d="M248 250L249 251L248 250z"/>
<path style="fill:#010101; stroke:none;" d="M256 250L257 251L256 250M275 250L276 251L275 250z"/>
<path style="fill:#505471; stroke:none;" d="M174 251L175 252L174 251z"/>
<path style="fill:#343647; stroke:none;" d="M207.333 251.667L207.667 252.333L207.333 251.667M233 251L234 252L233 251M247 251L248 252L247 251M268.333 251.667L268.667 252.333L268.333 251.667z"/>
<path style="fill:#010101; stroke:none;" d="M292 251L293 252L292 251M298.333 251.667L298.667 252.333L298.333 251.667z"/>
<path style="fill:#505471; stroke:none;" d="M306 251L307 252L306 251z"/>
<path style="fill:#898cae; stroke:none;" d="M174 252L175 253L174 252z"/>
<path style="fill:#010101; stroke:none;" d="M189 252L190 253L189 252z"/>
<path style="fill:#343647; stroke:none;" d="M212 252L213 253L212 252M235 252L236 253L235 252M245 252L246 253L245 252z"/>
<path style="fill:#010101; stroke:none;" d="M275 252L276 253L275 252z"/>
<path style="fill:#898cae; stroke:none;" d="M306 252L307 253L306 252z"/>
<path style="fill:#505471; stroke:none;" d="M178 253L179 254L178 253M195 253L196 254L195 253z"/>
<path style="fill:#343647; stroke:none;" d="M208 253L214 263L208 253z"/>
<path style="fill:#505471; stroke:none;" d="M213 253L214 254L213 253z"/>
<path style="fill:#343647; stroke:none;" d="M230 253L231 254L230 253M238 253L238 254L243 254L238 253M251 253L252 254L251 253M267 253L268 254L267 253M285 253L286 254L285 253M175 254L176 255L175 254M178 254L179 255L178 254M232 254L233 255L232 254M250 254L247 256L247 257L250 254M252 254L253 255L252 254z"/>
<path style="fill:#010101; stroke:none;" d="M273 254L274 255L273 254z"/>
<path style="fill:#343647; stroke:none;" d="M305 254L306 255L305 254z"/>
<path style="fill:#505471; stroke:none;" d="M175 255L176 256L175 255z"/>
<path style="fill:#010101; stroke:none;" d="M190 255L191 256L190 255z"/>
<path style="fill:#505471; stroke:none;" d="M214 255L215 256L214 255z"/>
<path style="fill:#343647; stroke:none;" d="M234 255L235 256L234 255M266 255L267 256L266 255z"/>
<path style="fill:#505471; stroke:none;" d="M305 255L306 256L305 255z"/>
<path style="fill:#898cae; stroke:none;" d="M175 256L176 257L175 256z"/>
<path style="fill:#505471; stroke:none;" d="M179 256L180 257L179 256M196 256L197 257L196 256z"/>
<path style="fill:#343647; stroke:none;" d="M236.667 256.333L237.333 256.667L236.667 256.333M284.333 256.667L284.667 257.333L284.333 256.667z"/>
<path style="fill:#010101; stroke:none;" d="M290 256L291 257L290 256M299 256L300 257L299 256z"/>
<path style="fill:#898cae; stroke:none;" d="M305 256L306 257L305 256z"/>
<path style="fill:#343647; stroke:none;" d="M179.333 257.667L179.667 258.333L179.333 257.667M196 257L197 258L196 257M215 257L216 258L215 257M241 257L241 258L246 258L241 257M265 257L266 258L265 257z"/>
<path style="fill:#d1d1d1; stroke:none;" d="M305 257L306 258L305 257z"/>
<path style="fill:#343647; stroke:none;" d="M176 258L177 259L176 258z"/>
<path style="fill:#505471; stroke:none;" d="M216 258L217 259L216 258z"/>
<path style="fill:#343647; stroke:none;" d="M264 258L265 259L264 258M304 258L305 259L304 258z"/>
<path style="fill:#505471; stroke:none;" d="M176 259L177 260L176 259M197 259L198 260L197 259M217 259L218 260L217 259z"/>
<path style="fill:#343647; stroke:none;" d="M263 259L264 260L263 259M283 259L284 260L283 259z"/>
<path style="fill:#505471; stroke:none;" d="M304 259L305 260L304 259z"/>
<path style="fill:#d1d1d1; stroke:none;" d="M176 260L177 261L176 260z"/>
<path style="fill:#505471; stroke:none;" d="M180 260L181 261L180 260z"/>
<path style="fill:#343647; stroke:none;" d="M184 260L183 263L184 263L184 260M193 260L196 268L193 260M197 260L198 261L197 260M287 260L286 264L289 264L287 260z"/>
<path style="fill:#d1d1d1; stroke:none;" d="M304 260L305 261L304 260z"/>
<path style="fill:#343647; stroke:none;" d="M180 261L181 262L180 261z"/>
<path style="fill:#010101; stroke:none;" d="M184 261C184.404 264.908 185.101 267.664 189 269L186 261L184 261z"/>
<path style="fill:#343647; stroke:none;" d="M186 261L187 262L186 261z"/>
<path style="fill:#505471; stroke:none;" d="M198 261L199 262L198 261z"/>
<path style="fill:#343647; stroke:none;" d="M282 261L283 262L282 261z"/>
<path style="fill:#505471; stroke:none;" d="M177 262L178 263L177 262z"/>
<path style="fill:#343647; stroke:none;" d="M198 262L199 263L198 262z"/>
<path style="fill:#010101; stroke:none;" d="M268 262L269 263L268 262z"/>
<path style="fill:#505471; stroke:none;" d="M303 262L304 263L303 262z"/>
<path style="fill:#d1d1d1; stroke:none;" d="M177 263L178 264L177 263z"/>
<path style="fill:#343647; stroke:none;" d="M181 263L182 264L181 263z"/>
<path style="fill:#505471; stroke:none;" d="M183 263L184 264L183 263z"/>
<path style="fill:#343647; stroke:none;" d="M187 263L188 264L187 263z"/>
<path style="fill:#505471; stroke:none;" d="M199 263L200 264L199 263z"/>
<path style="fill:#343647; stroke:none;" d="M214 263L215 264L214 263M281 263L282 264L281 263z"/>
<path style="fill:#d1d1d1; stroke:none;" d="M303 263L304 264L303 263z"/>
<path style="fill:#343647; stroke:none;" d="M178 264L179 265L178 264M215 264L216 265L215 264M274 264L273 266L274 264z"/>
<path style="fill:#010101; stroke:none;" d="M275 264L273 269C275.586 267.562 276.527 266.673 275 264z"/>
<path style="fill:#343647; stroke:none;" d="M276 264L277 265L276 264M285 264L285 268L285 264M287 264L288 265L287 264M302 264L303 265L302 264z"/>
<path style="fill:#898cae; stroke:none;" d="M178 265L179 266L178 265z"/>
<path style="fill:#505471; stroke:none;" d="M182 265L183 266L182 265z"/>
<path style="fill:#343647; stroke:none;" d="M184 265L185 266L184 265M188 265L189 266L188 265M200 265L201 266L200 265M216.667 265.333L217.333 265.667L216.667 265.333M223 265L224 266L223 265M257 265L258 266L257 265M277 265L278 266L277 265M280 265L281 266L280 265z"/>
<path style="fill:#010101; stroke:none;" d="M294 265L295 266L294 265z"/>
<path style="fill:#898cae; stroke:none;" d="M302 265L303 266L302 265z"/>
<path style="fill:#343647; stroke:none;" d="M179 266L180 267L179 266z"/>
<path style="fill:#505471; stroke:none;" d="M201 266L202 267L201 266z"/>
<path style="fill:#343647; stroke:none;" d="M218 266L219 267L218 266M225 266L226 267L225 266M255 266L256 267L255 266M279 266L280 267L279 266z"/>
<path style="fill:#010101; stroke:none;" d="M293 266L294 267L293 266z"/>
<path style="fill:#343647; stroke:none;" d="M301 266L302 267L301 266z"/>
<path style="fill:#898cae; stroke:none;" d="M179 267L180 268L179 267z"/>
<path style="fill:#505471; stroke:none;" d="M183 267L184 268L183 267M185 267L186 268L185 267z"/>
<path style="fill:#343647; stroke:none;" d="M189.333 267.667L189.667 268.333L189.333 267.667z"/>
<path style="fill:#505471; stroke:none;" d="M202 267L203 268L202 267z"/>
<path style="fill:#343647; stroke:none;" d="M220 267L221 268L220 267M227 267L228 268L227 267M253 267L254 268L253 267M261 267L260 269L262 269L261 267M272.333 267.667L272.667 268.333L272.333 267.667M276 267L277 268L276 267M278 267L279 268L278 267z"/>
<path style="fill:#898cae; stroke:none;" d="M301 267L302 268L301 267z"/>
<path style="fill:#343647; stroke:none;" d="M183 268L184 269L183 268M196 268L196 270L198 268L196 268M221 268L222 269L221 268M230 268L231 269L230 268M250 268L251 269L250 268M275 268L276 269L275 268M283 268L285 270L285 268L283 268z"/>
<path style="fill:#898cae; stroke:none;" d="M180 269L181 270L180 269z"/>
<path style="fill:#343647; stroke:none;" d="M187 269L188 270L187 269M198 269L200 274L201 273L198 269M203 269L204 270L203 269M223 269L224 270L223 269M233 269L234 270L233 269M247 269L248 270L247 269M259 269L260 270L259 269M274 269L275 270L274 269M282 269L276 278C279.096 275.81 283.449 273.035 282 269z"/>
<path style="fill:#898cae; stroke:none;" d="M300 269L301 270L300 269z"/>
<path style="fill:#343647; stroke:none;" d="M184 270L185 271L184 270M190 270L189 272L190 270M204 270L205 271L204 270M225 270L226 271L225 270M237 270L237 271L244 271L237 270M257.667 270.333L258.333 270.667L257.667 270.333z"/>
<path style="fill:#010101; stroke:none;" d="M263 277C267.464 276.503 269.995 275.064 272 271L271 270L263 277z"/>
<path style="fill:#343647; stroke:none;" d="M271 270L272 271L271 270M276 270L277 271L276 270z"/>
<path style="fill:#898cae; stroke:none;" d="M181 271L182 272L181 271z"/>
<path style="fill:#010101; stroke:none;" d="M190 271L189 274L193 275L192 271L190 271z"/>
<path style="fill:#343647; stroke:none;" d="M205 271L206 272L205 271M227 271L228 272L227 271M254.667 271.333L255.333 271.667L254.667 271.333M275 271L276 272L275 271z"/>
<path style="fill:#898cae; stroke:none;" d="M299 271L300 272L299 271z"/>
<path style="fill:#343647; stroke:none;" d="M182 272L183 273L182 272M185 272L186 273L185 272M192 272L193 273L192 272M206 272L207 273L206 272M230 272L231 273L230 272M250 272L251 273L250 272M274 272L275 273L274 272z"/>
<path style="fill:#010101; stroke:none;" d="M292 272L293 273L292 272z"/>
<path style="fill:#343647; stroke:none;" d="M298 272L299 273L298 272z"/>
<path style="fill:#898cae; stroke:none;" d="M182 273L183 274L182 273z"/>
<path style="fill:#505471; stroke:none;" d="M186 273L187 274L186 273z"/>
<path style="fill:#343647; stroke:none;" d="M201 273L200 274L207 279L201 273M207 273L208 274L207 273M233 273L233 274L236 274L233 273M245 273L245 274L248 274L245 273M265 273L266 274L265 273M273 273L274 274L273 273z"/>
<path style="fill:#898cae; stroke:none;" d="M298 273L299 274L298 273z"/>
<path style="fill:#343647; stroke:none;" d="M183 274L184 275L183 274z"/>
<path style="fill:#505471; stroke:none;" d="M189 274L190 275L189 274z"/>
<path style="fill:#343647; stroke:none;" d="M208 274L209 275L208 274M263 274L264 275L263 274M272 274L273 275L272 274z"/>
<path style="fill:#010101; stroke:none;" d="M292 274L293 275L292 274z"/>
<path style="fill:#343647; stroke:none;" d="M297 274L298 275L297 274z"/>
<path style="fill:#898cae; stroke:none;" d="M183 275L184 276L183 275z"/>
<path style="fill:#343647; stroke:none;" d="M187 275L188 276L187 275z"/>
<path style="fill:#505471; stroke:none;" d="M190 275L191 276L190 275z"/>
<path style="fill:#343647; stroke:none;" d="M191.667 275.333L192.333 275.667L191.667 275.333z"/>
<path style="fill:#898cae; stroke:none;" d="M297 275L298 276L297 275z"/>
<path style="fill:#505471; stroke:none;" d="M188 276L189 277L188 276z"/>
<path style="fill:#343647; stroke:none;" d="M267 276L268 277L267 276z"/>
<path style="fill:#898cae; stroke:none;" d="M184 277L186 279L184 277z"/>
<path style="fill:#343647; stroke:none;" d="M211 277L212 278L211 277M264.667 277.333L265.333 277.667L264.667 277.333M269 277L270 278L269 277z"/>
<path style="fill:#898cae; stroke:none;" d="M296 277L295 279L296 277z"/>
<path style="fill:#343647; stroke:none;" d="M189 278L190 279L189 278M213 278L214 279L213 278M267 278L268 279L267 278M274 278L275 279L274 278z"/>
<path style="fill:#505471; stroke:none;" d="M186 279L187 280L186 279z"/>
<path style="fill:#343647; stroke:none;" d="M207 279L208 280L207 279M214 279L215 280L214 279M272 279L273 280L272 279z"/>
<path style="fill:#505471; stroke:none;" d="M294 279L295 280L294 279z"/>
<path style="fill:#343647; stroke:none;" d="M187 280L188 281L187 280M191 280L192 281L191 280M208 280L209 281L208 280M216 280L217 281L216 280M264 280L265 281L264 280M271 280L272 281L271 280z"/>
<path style="fill:#010101; stroke:none;" d="M285 280L286 281L285 280M287 280L288 281L287 280z"/>
<path style="fill:#343647; stroke:none;" d="M293 280L294 281L293 280z"/>
<path style="fill:#505471; stroke:none;" d="M192 281L193 282L192 281z"/>
<path style="fill:#343647; stroke:none;" d="M209.667 281.333L210.333 281.667L209.667 281.333M218 281L219 282L218 281M262 281L263 282L262 281z"/>
<path style="fill:#898cae; stroke:none;" d="M188 282L190 284L188 282z"/>
<path style="fill:#505471; stroke:none;" d="M193 282L194 283L193 282z"/>
<path style="fill:#343647; stroke:none;" d="M211 282L212 283L211 282M220 282L221 283L220 282M260 282L261 283L260 282M268 282L269 283L268 282z"/>
<path style="fill:#d1d1d1; stroke:none;" d="M292 282L293 283L292 282z"/>
<path style="fill:#505471; stroke:none;" d="M194 283L195 284L194 283z"/>
<path style="fill:#343647; stroke:none;" d="M213.667 283.333L214.333 283.667L213.667 283.333M266 283L267 284L266 283z"/>
<path style="fill:#898cae; stroke:none;" d="M291 283L292 284L291 283z"/>
<path style="fill:#505471; stroke:none;" d="M190 284L191 285L190 284M195 284L196 285L195 284z"/>
<path style="fill:#343647; stroke:none;" d="M224 284L225 285L224 284M256 284L257 285L256 284z"/>
<path style="fill:#010101; stroke:none;" d="M282.667 284.333L283.333 284.667L282.667 284.333z"/>
<path style="fill:#505471; stroke:none;" d="M290 284L291 285L290 284M191 285L192 286L191 285z"/>
<path style="fill:#343647; stroke:none;" d="M217 285L218 286L217 285M227 285L228 286L227 285M253 285L254 286L253 285M263 285L264 286L263 285z"/>
<path style="fill:#505471; stroke:none;" d="M289 285L290 286L289 285z"/>
<path style="fill:#343647; stroke:none;" d="M192 286L193 287L192 286M220 286L221 287L220 286M230 286L230 287L233 287L230 286M248 286L248 287L251 287L248 286M260 286L261 287L260 286M288 286L289 287L288 286M193 287L194 288L193 287M197 287L198 288L197 287M222 287L223 288L222 287M237 287L237 288L244 288L237 287M258.667 287.333L259.333 287.667L258.667 287.333M287 287L288 288L287 287M194 288L195 289L194 288M224 288L225 289L224 288M256 288L257 289L256 288M286 288L287 289L286 288z"/>
<path style="fill:#505471; stroke:none;" d="M195 289L196 290L195 289z"/>
<path style="fill:#898cae; stroke:none;" d="M201 289L202 290L201 289z"/>
<path style="fill:#343647; stroke:none;" d="M227.667 289.333L228.333 289.667L227.667 289.333M252.667 289.333L253.333 289.667L252.667 289.333M277 289L274 293L277 289z"/>
<path style="fill:#505471; stroke:none;" d="M285 289L286 290L285 289M196 290L197 291L196 290z"/>
<path style="fill:#343647; stroke:none;" d="M201 290L202 291L201 290M232 290L232 291L239 291L232 290M242 290L242 291L249 291L242 290z"/>
<path style="fill:#898cae; stroke:none;" d="M284 290L285 291L284 290M197 291L198 292L197 291z"/>
<path style="fill:#343647; stroke:none;" d="M203 291L204 292L203 291z"/>
<path style="fill:#898cae; stroke:none;" d="M283 291L284 292L283 291z"/>
<path style="fill:#d1d1d1; stroke:none;" d="M282 292L283 293L282 292z"/>
<path style="fill:#343647; stroke:none;" d="M200 293L201 294L200 293M206 293L207 294L206 293M273 293L274 294L273 293M280 293L281 294L280 293z"/>
<path style="fill:#898cae; stroke:none;" d="M201 294L202 295L201 294z"/>
<path style="fill:#343647; stroke:none;" d="M272 294L273 295L272 294z"/>
<path style="fill:#898cae; stroke:none;" d="M279 294L280 295L279 294z"/>
<path style="fill:#343647; stroke:none;" d="M203 295L204 296L203 295M209 295L210 296L209 295M277 295L278 296L277 295z"/>
<path style="fill:#898cae; stroke:none;" d="M204 296L205 297L204 296z"/>
<path style="fill:#343647; stroke:none;" d="M211 296L212 297L211 296M269 296L270 297L269 296z"/>
<path style="fill:#898cae; stroke:none;" d="M276 296L277 297L276 296z"/>
<path style="fill:#343647; stroke:none;" d="M206 297L207 298L206 297M213 297L214 298L213 297M267 297L268 298L267 297M274 297L275 298L274 297M215 298L216 299L215 298M265 298L266 299L265 298z"/>
<path style="fill:#898cae; stroke:none;" d="M273 298L274 299L273 298z"/>
<path style="fill:#505471; stroke:none;" d="M209 299L210 300L209 299z"/>
<path style="fill:#343647; stroke:none;" d="M217 299L218 300L217 299M263 299L264 300L263 299M271 299L272 300L271 299z"/>
<path style="fill:#505471; stroke:none;" d="M211 300L212 301L211 300z"/>
<path style="fill:#343647; stroke:none;" d="M220 300L221 301L220 300M260 300L261 301L260 300z"/>
<path style="fill:#505471; stroke:none;" d="M269 300L270 301L269 300M213 301L214 302L213 301z"/>
<path style="fill:#343647; stroke:none;" d="M222.667 301.333L223.333 301.667L222.667 301.333M257.667 301.333L258.333 301.667L257.667 301.333z"/>
<path style="fill:#505471; stroke:none;" d="M267 301L268 302L267 301M216 302L217 303L216 302z"/>
<path style="fill:#343647; stroke:none;" d="M217 302L218 303L217 302M227 302L227 303L231 303L227 302M250 302L250 303L254 303L250 302M263 302L264 303L263 302z"/>
<path style="fill:#505471; stroke:none;" d="M264 302L265 303L264 302z"/>
<path style="fill:#d1d1d1; stroke:none;" d="M265 302L266 303L265 302z"/>
<path style="fill:#898cae; stroke:none;" d="M219 303L220 304L219 303z"/>
<path style="fill:#343647; stroke:none;" d="M220 303L221 304L220 303M236 303L236 304L245 304L236 303M260 303L261 304L260 303z"/>
<path style="fill:#898cae; stroke:none;" d="M261 303L262 304L261 303M222 304L223 305L222 304z"/>
<path style="fill:#343647; stroke:none;" d="M223 304L224 305L223 304M257 304L258 305L257 304z"/>
<path style="fill:#898cae; stroke:none;" d="M258 304L259 305L258 304z"/>
<path style="fill:#d1d1d1; stroke:none;" d="M225 305L226 306L225 305z"/>
<path style="fill:#898cae; stroke:none;" d="M226 305L227 306L226 305z"/>
<path style="fill:#505471; stroke:none;" d="M227 305L228 306L227 305z"/>
<path style="fill:#343647; stroke:none;" d="M228 305L229 306L228 305M252 305L253 306L252 305z"/>
<path style="fill:#505471; stroke:none;" d="M253 305L254 306L253 305z"/>
<path style="fill:#898cae; stroke:none;" d="M254 305L255 306L254 305z"/>
<path style="fill:#d1d1d1; stroke:none;" d="M255 305L256 306L255 305z"/>
<path style="fill:#898cae; stroke:none;" d="M232 306L233 307L232 306z"/>
<path style="fill:#505471; stroke:none;" d="M233 306L234 307L233 306z"/>
<path style="fill:#343647; stroke:none;" d="M234.667 306.333L235.333 306.667L234.667 306.333M245.667 306.333L246.333 306.667L245.667 306.333z"/>
<path style="fill:#505471; stroke:none;" d="M247 306L248 307L247 306z"/>
<path style="fill:#898cae; stroke:none;" d="M248 306L249 307L248 306z"/>
</svg>
