<?xml version="1.0" standalone="yes"?>
<svg xmlns="http://www.w3.org/2000/svg" width="481" height="519">
<!--<path style="fill:#010101; stroke:none;" d="M0 0L0 519L481 519L481 0L0 0z"/>-->
<path style="fill:#a09582; stroke:none;" d="M235 173L235 174L239 174L235 173z"/>
<path style="fill:#6c6355; stroke:none;" d="M239 173L240 174L239 173z"/>
<path style="fill:#a09582; stroke:none;" d="M240 173L240 174L245 174L240 173M228 174L229 175L228 174z"/>
<path style="fill:#6c6355; stroke:none;" d="M229.667 174.333L230.333 174.667L229.667 174.333M250.667 174.333L251.333 174.667L250.667 174.333z"/>
<path style="fill:#a09582; stroke:none;" d="M252 174L253 175L252 174z"/>
<path style="fill:#6c6355; stroke:none;" d="M224.667 175.333L225.333 175.667L224.667 175.333M255.667 175.333L256.333 175.667L255.667 175.333M221 176L222 177L221 176M259 176L260 177L259 176M218 177L219 178L218 177M231 177L231 178L234 178L231 177z"/>
<path style="fill:#a09582; stroke:none;" d="M234 177L235 178L234 177z"/>
<path style="fill:#e5c18b; stroke:none;" d="M235 177L235 178L238 178L235 177z"/>
<path style="fill:#f4e1c0; stroke:none;" d="M299 236L296 236L299 229L295 229L295 224L299 224C296.131 212.086 294.036 204.172 284.91 195.09C246.524 156.889 172.044 186.497 177.171 243C181.006 285.271 228.361 320.238 269 296.637C289.465 284.751 298.985 258.363 299 236z"/>
<path style="fill:#e5c18b; stroke:none;" d="M243 177L243 178L246 178L243 177z"/>
<path style="fill:#a09582; stroke:none;" d="M246 177L247 178L246 177z"/>
<path style="fill:#6c6355; stroke:none;" d="M247 177L247 178L250 178L247 177M262 177L263 178L262 177z"/>
<path style="fill:#a09582; stroke:none;" d="M215 178L216 179L215 178z"/>
<path style="fill:#6c6355; stroke:none;" d="M226 178L227 179L226 178z"/>
<path style="fill:#a09582; stroke:none;" d="M227 178L228 179L227 178z"/>
<path style="fill:#e5c18b; stroke:none;" d="M228 178L229 179L228 178M252 178L253 179L252 178z"/>
<path style="fill:#a09582; stroke:none;" d="M253 178L254 179L253 178z"/>
<path style="fill:#6c6355; stroke:none;" d="M254 178L255 179L254 178z"/>
<path style="fill:#a09582; stroke:none;" d="M265 178L266 179L265 178M212 179L213 180L212 179z"/>
<path style="fill:#6c6355; stroke:none;" d="M213 179L214 180L213 179M221 179L222 180L221 179z"/>
<path style="fill:#a09582; stroke:none;" d="M222.667 179.333L223.333 179.667L222.667 179.333z"/>
<path style="fill:#e5c18b; stroke:none;" d="M224 179L225 180L224 179M256 179L257 180L256 179z"/>
<path style="fill:#a09582; stroke:none;" d="M257.667 179.333L258.333 179.667L257.667 179.333z"/>
<path style="fill:#6c6355; stroke:none;" d="M259 179L260 180L259 179M267 179L268 180L267 179z"/>
<path style="fill:#a09582; stroke:none;" d="M268 179L269 180L268 179z"/>
<path style="fill:#6c6355; stroke:none;" d="M210 180L211 181L210 180M218 180L219 181L218 180z"/>
<path style="fill:#a09582; stroke:none;" d="M219 180L220 181L219 180M261 180L262 181L261 180z"/>
<path style="fill:#6c6355; stroke:none;" d="M262 180L263 181L262 180M270 180L271 181L270 180M208 181L209 182L208 181z"/>
<path style="fill:#a09582; stroke:none;" d="M216 181L217 182L216 181z"/>
<path style="fill:#e5c18b; stroke:none;" d="M263 181L264 182L263 181z"/>
<path style="fill:#a09582; stroke:none;" d="M264 181L265 182L264 181z"/>
<path style="fill:#6c6355; stroke:none;" d="M272 181L273 182L272 181M213 182L214 183L213 182z"/>
<path style="fill:#a09582; stroke:none;" d="M214 182L215 183L214 182M266 182L267 183L266 182z"/>
<path style="fill:#6c6355; stroke:none;" d="M267 182L268 183L267 182M205 183L206 184L205 183M211 183L212 184L211 183z"/>
<path style="fill:#e5c18b; stroke:none;" d="M212 183L213 184L212 183z"/>
<path style="fill:#a09582; stroke:none;" d="M268 183L269 184L268 183z"/>
<path style="fill:#6c6355; stroke:none;" d="M269 183L270 184L269 183M275 183L276 184L275 183z"/>
<path style="fill:#a09582; stroke:none;" d="M203 184L204 185L203 184z"/>
<path style="fill:#e5c18b; stroke:none;" d="M210 184L211 185L210 184z"/>
<path style="fill:#a09582; stroke:none;" d="M270 184L271 185L270 184M277 184L278 185L277 184z"/>
<path style="fill:#6c6355; stroke:none;" d="M202 185L203 186L202 185M208 185L209 186L208 185M272 185L273 186L272 185M278 185L279 186L278 185z"/>
<path style="fill:#e5c18b; stroke:none;" d="M200 186L201 187L200 186z"/>
<path style="fill:#a09582; stroke:none;" d="M207 186L208 187L207 186M273 186L274 187L273 186M199 187L200 188L199 187z"/>
<path style="fill:#6c6355; stroke:none;" d="M205 187L206 188L205 187M275 187L276 188L275 187z"/>
<path style="fill:#a09582; stroke:none;" d="M281 187L282 188L281 187z"/>
<path style="fill:#6c6355; stroke:none;" d="M198 188L199 189L198 188z"/>
<path style="fill:#e5c18b; stroke:none;" d="M204 188L205 189L204 188z"/>
<path style="fill:#a09582; stroke:none;" d="M276 188L277 189L276 188z"/>
<path style="fill:#6c6355; stroke:none;" d="M282 188L283 189L282 188M202 189L203 190L202 189M278 189L279 190L278 189M196 190L195 192L196 190z"/>
<path style="fill:#a09582; stroke:none;" d="M201 190L202 191L201 190z"/>
<path style="fill:#e5c18b; stroke:none;" d="M230.667 190.333L231.333 190.667L230.667 190.333z"/>
<path style="fill:#a09582; stroke:none;" d="M232 190L233 191L232 190z"/>
<path style="fill:#6c6355; stroke:none;" d="M233.667 190.333L234.333 190.667L233.667 190.333z"/>
<path style="fill:#010101; stroke:none;" d="M235 190.428C227.061 191.565 219.829 193.587 213 197.962C166.401 227.814 197.999 297.196 250 289.7C312.083 280.75 296.873 181.569 235 190.428z"/>
<path style="fill:#6c6355; stroke:none;" d="M246.667 190.333L247.333 190.667L246.667 190.333z"/>
<path style="fill:#a09582; stroke:none;" d="M248 190L249 191L248 190z"/>
<path style="fill:#e5c18b; stroke:none;" d="M249 190L250 191L249 190z"/>
<path style="fill:#6c6355; stroke:none;" d="M279 190L280 191L279 190M284 190L286 192L284 190z"/>
<path style="fill:#e5c18b; stroke:none;" d="M194 191L195 192L194 191z"/>
<path style="fill:#6c6355; stroke:none;" d="M199 191L200 192L199 191z"/>
<path style="fill:#e5c18b; stroke:none;" d="M200 191L201 192L200 191M224.667 191.333L225.333 191.667L224.667 191.333z"/>
<path style="fill:#a09582; stroke:none;" d="M226 191L227 192L226 191z"/>
<path style="fill:#6c6355; stroke:none;" d="M227.667 191.333L228.333 191.667L227.667 191.333M252.667 191.333L253.333 191.667L252.667 191.333z"/>
<path style="fill:#a09582; stroke:none;" d="M254 191L255 192L254 191z"/>
<path style="fill:#e5c18b; stroke:none;" d="M255 191L256 192L255 191M280 191L281 192L280 191z"/>
<path style="fill:#6c6355; stroke:none;" d="M281 191L282 192L281 191z"/>
<path style="fill:#a09582; stroke:none;" d="M193 192L194 193L193 192M198 192L199 193L198 192z"/>
<path style="fill:#e5c18b; stroke:none;" d="M209 281C202.519 271.798 195.29 265.101 191.746 254C183.9 229.422 199.185 202.844 222 193C211.764 191.295 199.749 206.201 195.465 214C183.431 235.907 184.452 267.863 209 281z"/>
<path style="fill:#a09582; stroke:none;" d="M222 192L223 193L222 192z"/>
<path style="fill:#6c6355; stroke:none;" d="M223 192L224 193L223 192M257 192L258 193L257 192z"/>
<path style="fill:#e5c18b; stroke:none;" d="M258 192L259 193L258 192z"/>
<path style="fill:#a09582; stroke:none;" d="M282 192L283 193L282 192M287 192L289 194L287 192M192 193L193 194L192 193M197 193L198 194L197 193M220 193L221 194L220 193z"/>
<path style="fill:#6c6355; stroke:none;" d="M221 193L222 194L221 193M232.667 193.333L233.333 193.667L232.667 193.333z"/>
<path style="fill:#a09582; stroke:none;" d="M234.667 193.333L235.333 193.667L234.667 193.333z"/>
<path style="fill:#e5c18b; stroke:none;" d="M236 193L236 194L239 194L236 193z"/>
<path style="fill:#f4e1c0; stroke:none;" d="M239 193.514C231.517 193.996 224.604 195.707 218 199.312C174.899 222.845 195.093 290.335 244 286.91C303.029 282.777 297.938 189.716 239 193.514z"/>
<path style="fill:#e5c18b; stroke:none;" d="M242 193L242 194L245 194L242 193z"/>
<path style="fill:#a09582; stroke:none;" d="M245.667 193.333L246.333 193.667L245.667 193.333z"/>
<path style="fill:#6c6355; stroke:none;" d="M247.667 193.333L248.333 193.667L247.667 193.333M259 193L260 194L259 193z"/>
<path style="fill:#e5c18b; stroke:none;" d="M260 193L261 194L260 193z"/>
<path style="fill:#a09582; stroke:none;" d="M283 193L284 194L283 193z"/>
<path style="fill:#e5c18b; stroke:none;" d="M191 194L192 195L191 194z"/>
<path style="fill:#6c6355; stroke:none;" d="M196 194L197 195L196 194z"/>
<path style="fill:#a09582; stroke:none;" d="M218 194L219 195L218 194z"/>
<path style="fill:#6c6355; stroke:none;" d="M219 194L220 195L219 194M228 194L229 195L228 194z"/>
<path style="fill:#a09582; stroke:none;" d="M229 194L230 195L229 194z"/>
<path style="fill:#e5c18b; stroke:none;" d="M230 194L231 195L230 194M250 194L251 195L250 194z"/>
<path style="fill:#a09582; stroke:none;" d="M251 194L252 195L251 194z"/>
<path style="fill:#6c6355; stroke:none;" d="M252 194L253 195L252 194M261 194L262 195L261 194z"/>
<path style="fill:#e5c18b; stroke:none;" d="M262 194L263 195L262 194z"/>
<path style="fill:#6c6355; stroke:none;" d="M284 194L285 195L284 194z"/>
<path style="fill:#e5c18b; stroke:none;" d="M289 194L290 195L289 194z"/>
<path style="fill:#6c6355; stroke:none;" d="M195 195L196 196L195 195z"/>
<path style="fill:#a09582; stroke:none;" d="M216 195L217 196L216 195z"/>
<path style="fill:#6c6355; stroke:none;" d="M217 195L218 196L217 195M225 195L226 196L225 195z"/>
<path style="fill:#e5c18b; stroke:none;" d="M226 195L227 196L226 195M254 195L255 196L254 195z"/>
<path style="fill:#6c6355; stroke:none;" d="M255 195L256 196L255 195M263 195L264 196L263 195z"/>
<path style="fill:#a09582; stroke:none;" d="M264 195L265 196L264 195z"/>
<path style="fill:#6c6355; stroke:none;" d="M285 195L286 196L285 195M194 196L195 197L194 196M215 196L216 197L215 196M222 196L223 197L222 196z"/>
<path style="fill:#e5c18b; stroke:none;" d="M223 196L224 197L223 196z"/>
<path style="fill:#a09582; stroke:none;" d="M257 196L258 197L257 196z"/>
<path style="fill:#6c6355; stroke:none;" d="M258 196L259 197L258 196M265 196L266 197L265 196z"/>
<path style="fill:#e5c18b; stroke:none;" d="M266 196L267 197L266 196z"/>
<path style="fill:#6c6355; stroke:none;" d="M286 196L287 197L286 196M213 197L214 198L213 197M220 197L221 198L220 197z"/>
<path style="fill:#e5c18b; stroke:none;" d="M221 197L222 198L221 197M259 197L260 198L259 197z"/>
<path style="fill:#6c6355; stroke:none;" d="M260 197L261 198L260 197M267 197L268 198L267 197z"/>
<path style="fill:#e5c18b; stroke:none;" d="M268 197L269 198L268 197z"/>
<path style="fill:#6c6355; stroke:none;" d="M188 198L189 199L188 198M218 198L219 199L218 198z"/>
<path style="fill:#e5c18b; stroke:none;" d="M219 198L220 199L219 198z"/>
<path style="fill:#a09582; stroke:none;" d="M261 198L262 199L261 198z"/>
<path style="fill:#6c6355; stroke:none;" d="M262 198L263 199L262 198z"/>
<path style="fill:#e5c18b; stroke:none;" d="M269 198L269 199C286.32 210.458 295.692 233.835 289.254 254C286.058 264.01 279.873 270.63 274 279C304.174 263.345 300.21 210.005 269 198z"/>
<path style="fill:#6c6355; stroke:none;" d="M292 198L293 199L292 198z"/>
<path style="fill:#a09582; stroke:none;" d="M187 199L188 200L187 199z"/>
<path style="fill:#6c6355; stroke:none;" d="M210 199L211 200L210 199z"/>
<path style="fill:#a09582; stroke:none;" d="M217 199L218 200L217 199M263 199L264 200L263 199M270 199L271 200L270 199z"/>
<path style="fill:#e5c18b; stroke:none;" d="M288 199L289 200L288 199z"/>
<path style="fill:#a09582; stroke:none;" d="M293 199L294 200L293 199z"/>
<path style="fill:#e5c18b; stroke:none;" d="M191 200L192 201L191 200z"/>
<path style="fill:#6c6355; stroke:none;" d="M209 200L210 201L209 200M215 200L216 201L215 200M265 200L266 201L265 200M271 200L272 201L271 200z"/>
<path style="fill:#a09582; stroke:none;" d="M289 200L290 201L289 200M190 201L191 202L190 201z"/>
<path style="fill:#6c6355; stroke:none;" d="M208 201L209 202L208 201z"/>
<path style="fill:#e5c18b; stroke:none;" d="M214 201L215 202L214 201M266 201L267 202L266 201z"/>
<path style="fill:#6c6355; stroke:none;" d="M272 201L273 202L272 201M290 201L291 202L290 201M185 202L184 204L185 202M189 202L190 203L189 202M207 202L208 203L207 202M212 202L213 203L212 202M268 202L269 203L268 202M273 202L274 203L273 202M291 202L292 203L291 202M295 202L297 204L295 202M188 203L189 204L188 203z"/>
<path style="fill:#a09582; stroke:none;" d="M205 203L206 204L205 203z"/>
<path style="fill:#6c6355; stroke:none;" d="M210 203L211 204L210 203z"/>
<path style="fill:#e5c18b; stroke:none;" d="M211 203L212 204L211 203M269 203L270 204L269 203z"/>
<path style="fill:#6c6355; stroke:none;" d="M270 203L271 204L270 203z"/>
<path style="fill:#a09582; stroke:none;" d="M275 203L276 204L275 203z"/>
<path style="fill:#6c6355; stroke:none;" d="M292 203L293 204L292 203z"/>
<path style="fill:#a09582; stroke:none;" d="M204 204L205 205L204 204M209 204L210 205L209 204z"/>
<path style="fill:#6c6355; stroke:none;" d="M271 204L272 205L271 204z"/>
<path style="fill:#a09582; stroke:none;" d="M276 204L277 205L276 204z"/>
<path style="fill:#6c6355; stroke:none;" d="M183 205L184 206L183 205z"/>
<path style="fill:#e5c18b; stroke:none;" d="M187 205L188 206L187 205z"/>
<path style="fill:#a09582; stroke:none;" d="M203 205L204 206L203 205z"/>
<path style="fill:#6c6355; stroke:none;" d="M208 205L209 206L208 205M272 205L273 206L272 205z"/>
<path style="fill:#a09582; stroke:none;" d="M277 205L278 206L277 205M293 205L294 206L293 205z"/>
<path style="fill:#6c6355; stroke:none;" d="M297 205L298 206L297 205M186 206L187 207L186 206z"/>
<path style="fill:#a09582; stroke:none;" d="M202 206L203 207L202 206z"/>
<path style="fill:#6c6355; stroke:none;" d="M207 206L208 207L207 206z"/>
<path style="fill:#e5c18b; stroke:none;" d="M235 206L236 207L235 206z"/>
<path style="fill:#a09582; stroke:none;" d="M236.667 206.333L237.333 206.667L236.667 206.333z"/>
<path style="fill:#6c6355; stroke:none;" d="M238 206L238 207L243 207L238 206z"/>
<path style="fill:#a09582; stroke:none;" d="M243.667 206.333L244.333 206.667L243.667 206.333z"/>
<path style="fill:#e5c18b; stroke:none;" d="M245 206L246 207L245 206z"/>
<path style="fill:#6c6355; stroke:none;" d="M273 206L274 207L273 206z"/>
<path style="fill:#a09582; stroke:none;" d="M278 206L279 207L278 206z"/>
<path style="fill:#6c6355; stroke:none;" d="M294 206L295 207L294 206M182 207L183 208L182 207M206 207L207 208L206 207z"/>
<path style="fill:#e5c18b; stroke:none;" d="M231 207L232 208L231 207z"/>
<path style="fill:#6c6355; stroke:none;" d="M232.667 207.333L233.333 207.667L232.667 207.333z"/>
<path style="fill:#010101; stroke:none;" d="M234 207.465C192.511 214.945 203.83 280.929 245 273.535C288.814 265.667 277.858 199.557 234 207.465z"/>
<path style="fill:#6c6355; stroke:none;" d="M247.667 207.333L248.333 207.667L247.667 207.333z"/>
<path style="fill:#e5c18b; stroke:none;" d="M249 207L250 208L249 207z"/>
<path style="fill:#6c6355; stroke:none;" d="M274 207L275 208L274 207z"/>
<path style="fill:#e5c18b; stroke:none;" d="M288 207L287 209L288 207z"/>
<path style="fill:#a09582; stroke:none;" d="M289 207L290 208L289 207z"/>
<path style="fill:#6c6355; stroke:none;" d="M298 207L299 208L298 207z"/>
<path style="fill:#a09582; stroke:none;" d="M185 208L186 209L185 208M228 208L229 209L228 208z"/>
<path style="fill:#6c6355; stroke:none;" d="M229 208L230 209L229 208M251 208L252 209L251 208z"/>
<path style="fill:#a09582; stroke:none;" d="M252 208L253 209L252 208z"/>
<path style="fill:#010101; stroke:none;" d="M288 208C289.225 212.765 292.122 219.334 297 221L291 208L288 208z"/>
<path style="fill:#a09582; stroke:none;" d="M295 208L296 209L295 208z"/>
<path style="fill:#6c6355; stroke:none;" d="M181 209L182 210L181 209M200 209L201 210L200 209z"/>
<path style="fill:#e5c18b; stroke:none;" d="M225 209L226 210L225 209z"/>
<path style="fill:#a09582; stroke:none;" d="M226 209L227 210L226 209M254 209L255 210L254 209z"/>
<path style="fill:#e5c18b; stroke:none;" d="M255 209L255 210C280.504 223.16 279.129 255.533 256 270L256 271C286.824 262.103 284.754 217.572 255 209M275 209L276 210L275 209z"/>
<path style="fill:#6c6355; stroke:none;" d="M280 209L281 210L280 209M287 209L288 210L287 209M291 209L292 210L291 209M299 209L300 210L299 209z"/>
<path style="fill:#e5c18b; stroke:none;" d="M180 210L181 211L180 210M184 210L185 211L184 210z"/>
<path style="fill:#a09582; stroke:none;" d="M199 210L200 211L199 210z"/>
<path style="fill:#e5c18b; stroke:none;" d="M217 265C203.881 245.736 202.949 225.394 224 211C217.743 210.093 211.495 218.059 208.8 223C202.228 235.049 202.984 258.321 217 265z"/>
<path style="fill:#6c6355; stroke:none;" d="M224 210L225 211L224 210M234 210L235 211L234 210z"/>
<path style="fill:#a09582; stroke:none;" d="M235 210L236 211L235 210z"/>
<path style="fill:#e5c18b; stroke:none;" d="M236 210L237 211L236 210z"/>
<path style="fill:#f4e1c0; stroke:none;" d="M237 210.479C197.763 216.58 205.93 275.467 245 269.699C282.85 264.111 274.295 204.681 237 210.479z"/>
<path style="fill:#e5c18b; stroke:none;" d="M242.667 210.333L243.333 210.667L242.667 210.333z"/>
<path style="fill:#a09582; stroke:none;" d="M244.667 210.333L245.333 210.667L244.667 210.333z"/>
<path style="fill:#6c6355; stroke:none;" d="M246 210L247 211L246 210M256 210L257 211L256 210z"/>
<path style="fill:#e5c18b; stroke:none;" d="M276 210L277 211L276 210z"/>
<path style="fill:#a09582; stroke:none;" d="M281 210L282 211L281 210z"/>
<path style="fill:#e5c18b; stroke:none;" d="M287 210L288 211L287 210z"/>
<path style="fill:#6c6355; stroke:none;" d="M292 210L293 211L292 210z"/>
<path style="fill:#a09582; stroke:none;" d="M296 210L297 211L296 210z"/>
<path style="fill:#6c6355; stroke:none;" d="M180 211L181 212L180 211z"/>
<path style="fill:#a09582; stroke:none;" d="M203 211L204 212L203 211M222 211L223 212L222 211M231 211L232 212L231 211z"/>
<path style="fill:#e5c18b; stroke:none;" d="M232 211L233 212L232 211M248 211L249 212L248 211z"/>
<path style="fill:#6c6355; stroke:none;" d="M249 211L250 212L249 211z"/>
<path style="fill:#a09582; stroke:none;" d="M258 211L259 212L258 211M277 211L278 212L277 211M288 211L289 212L288 211M293 211L294 212L293 211z"/>
<path style="fill:#6c6355; stroke:none;" d="M300 211L301 212L300 211z"/>
<path style="fill:#a09582; stroke:none;" d="M183 212L184 213L183 212z"/>
<path style="fill:#6c6355; stroke:none;" d="M202 212L203 213L202 212M221 212L222 213L221 212M228 212L229 213L228 212z"/>
<path style="fill:#e5c18b; stroke:none;" d="M229 212L230 213L229 212M251 212L252 213L251 212z"/>
<path style="fill:#6c6355; stroke:none;" d="M252 212L253 213L252 212M259 212L260 213L259 212M278 212L279 213L278 212z"/>
<path style="fill:#a09582; stroke:none;" d="M289 212L290 213L289 212z"/>
<path style="fill:#6c6355; stroke:none;" d="M297 212L298 213L297 212M179 213L180 214L179 213z"/>
<path style="fill:#e5c18b; stroke:none;" d="M183 213L184 214L183 213z"/>
<path style="fill:#6c6355; stroke:none;" d="M197 213L198 214L197 213M220 213L221 214L220 213M226 213L227 214L226 213z"/>
<path style="fill:#e5c18b; stroke:none;" d="M253 213L254 214L253 213z"/>
<path style="fill:#6c6355; stroke:none;" d="M254 213L255 214L254 213M260 213L261 214L260 213M283 213L284 214L283 213M290 213L291 214L290 213M294 213L295 214L294 213z"/>
<path style="fill:#a09582; stroke:none;" d="M297 213L298 214L297 213z"/>
<path style="fill:#6c6355; stroke:none;" d="M301 213L302 214L301 213M182 214L183 215L182 214z"/>
<path style="fill:#e5c18b; stroke:none;" d="M201 214L202 215L201 214z"/>
<path style="fill:#6c6355; stroke:none;" d="M219 214L220 215L219 214M224 214L225 215L224 214z"/>
<path style="fill:#e5c18b; stroke:none;" d="M255 214L256 215L255 214z"/>
<path style="fill:#6c6355; stroke:none;" d="M256 214L257 215L256 214M261 214L262 215L261 214z"/>
<path style="fill:#e5c18b; stroke:none;" d="M279 214L280 215L279 214M295 214L296 215L295 214M297 214C300.677 233.747 299.979 255.276 289.651 273C285.103 280.805 278.139 286.703 273 294C297.189 282.017 316.225 237.819 297 214z"/>
<path style="fill:#a09582; stroke:none;" d="M178 215L179 216L178 215M182 215L183 216L182 215z"/>
<path style="fill:#6c6355; stroke:none;" d="M196 215L197 216L196 215M200 215L201 216L200 215z"/>
<path style="fill:#a09582; stroke:none;" d="M223 215L224 216L223 215M257 215L258 216L257 215z"/>
<path style="fill:#6c6355; stroke:none;" d="M280 215L281 216L280 215M284 215L285 216L284 215z"/>
<path style="fill:#a09582; stroke:none;" d="M291 215L292 216L291 215z"/>
<path style="fill:#6c6355; stroke:none;" d="M295 215L296 216L295 215z"/>
<path style="fill:#a09582; stroke:none;" d="M298 215L299 216L298 215M302 215L303 216L302 215z"/>
<path style="fill:#6c6355; stroke:none;" d="M199 216L200 217L199 216z"/>
<path style="fill:#a09582; stroke:none;" d="M216 216L217 217L216 216z"/>
<path style="fill:#6c6355; stroke:none;" d="M221 216L222 217L221 216z"/>
<path style="fill:#e5c18b; stroke:none;" d="M258 216L259 217L258 216z"/>
<path style="fill:#6c6355; stroke:none;" d="M259 216L260 217L259 216z"/>
<path style="fill:#a09582; stroke:none;" d="M264 216L265 217L264 216z"/>
<path style="fill:#6c6355; stroke:none;" d="M281 216L282 217L281 216z"/>
<path style="fill:#e5c18b; stroke:none;" d="M296 216L297 217L296 216z"/>
<path style="fill:#a09582; stroke:none;" d="M177 217L178 218L177 217M181 217L182 218L181 217z"/>
<path style="fill:#6c6355; stroke:none;" d="M195 217L196 218L195 217M215 217L216 218L215 217M220 217L221 218L220 217M260 217L261 218L260 217M265 217L266 218L265 217z"/>
<path style="fill:#e5c18b; stroke:none;" d="M281 217L282 218L281 217z"/>
<path style="fill:#6c6355; stroke:none;" d="M285 217L286 218L285 217z"/>
<path style="fill:#a09582; stroke:none;" d="M292 217L293 218L292 217z"/>
<path style="fill:#6c6355; stroke:none;" d="M296.333 217.667L296.667 218.333L296.333 217.667z"/>
<path style="fill:#a09582; stroke:none;" d="M299 217L300 218L299 217M303 217L304 218L303 217z"/>
<path style="fill:#6c6355; stroke:none;" d="M177 218L178 219L177 218M198 218L199 219L198 218z"/>
<path style="fill:#a09582; stroke:none;" d="M214 218L215 219L214 218z"/>
<path style="fill:#6c6355; stroke:none;" d="M219 218L220 219L219 218M261 218L262 219L261 218z"/>
<path style="fill:#a09582; stroke:none;" d="M266 218L267 219L266 218z"/>
<path style="fill:#6c6355; stroke:none;" d="M282 218L283 219L282 218M303 218L304 219L303 218M180 219L181 220L180 219M194 219L195 220L194 219z"/>
<path style="fill:#a09582; stroke:none;" d="M213 219L214 220L213 219z"/>
<path style="fill:#6c6355; stroke:none;" d="M218 219L219 220L218 219M262 219L263 220L262 219z"/>
<path style="fill:#a09582; stroke:none;" d="M267 219L268 220L267 219z"/>
<path style="fill:#6c6355; stroke:none;" d="M286 219L287 220L286 219M293 219L294 220L293 219M300 219L301 220L300 219z"/>
<path style="fill:#a09582; stroke:none;" d="M176 220L177 221L176 220z"/>
<path style="fill:#e5c18b; stroke:none;" d="M180 220L181 221L180 220z"/>
<path style="fill:#6c6355; stroke:none;" d="M197 220L198 221L197 220M217 220L218 221L217 220M263 220L264 221L263 220M283 220L284 221L283 220z"/>
<path style="fill:#a09582; stroke:none;" d="M293 220L294 221L293 220M300 220L301 221L300 220M304 220L305 221L304 220z"/>
<path style="fill:#6c6355; stroke:none;" d="M176 221L177 222L176 221z"/>
<path style="fill:#a09582; stroke:none;" d="M193 221L194 222L193 221z"/>
<path style="fill:#6c6355; stroke:none;" d="M212 221L213 222L212 221M268 221L269 222L268 221z"/>
<path style="fill:#e5c18b; stroke:none;" d="M283 221L284 222L283 221z"/>
<path style="fill:#a09582; stroke:none;" d="M287 221L288 222L287 221z"/>
<path style="fill:#6c6355; stroke:none;" d="M294.667 221.333L295.333 221.667L294.667 221.333z"/>
<path style="fill:#e5c18b; stroke:none;" d="M296 221L297 222L296 221z"/>
<path style="fill:#6c6355; stroke:none;" d="M304 221L305 222L304 221M179 222L180 223L179 222M193 222L194 223L193 222M196 222L197 223L196 222z"/>
<path style="fill:#a09582; stroke:none;" d="M211 222L212 223L211 222M218 224L221 223L218 224z"/>
<path style="fill:#e5c18b; stroke:none;" d="M264 222L265 223L264 222z"/>
<path style="fill:#a09582; stroke:none;" d="M269 222L270 223L269 222z"/>
<path style="fill:#6c6355; stroke:none;" d="M284.333 222.667L284.667 223.333L284.333 222.667M287 222L288 223L287 222M301 222L302 223L301 222z"/>
<path style="fill:#e5c18b; stroke:none;" d="M175 223L176 224L175 223z"/>
<path style="fill:#a09582; stroke:none;" d="M179 223L180 224L179 223M196 223L197 224L196 223M215 223L216 224L215 223z"/>
<path style="fill:#010101; stroke:none;" d="M219 223L216 232L221 223L219 223z"/>
<path style="fill:#6c6355; stroke:none;" d="M221.333 223.667L221.667 224.333L221.333 223.667z"/>
<path style="fill:#e5c18b; stroke:none;" d="M238.667 223.333L239.333 223.667L238.667 223.333z"/>
<path style="fill:#a09582; stroke:none;" d="M240 223L241 224L240 223z"/>
<path style="fill:#e5c18b; stroke:none;" d="M241.667 223.333L242.333 223.667L241.667 223.333z"/>
<path style="fill:#a09582; stroke:none;" d="M265 223L266 224L265 223M301 223L302 224L301 223M305 223L306 224L305 223z"/>
<path style="fill:#6c6355; stroke:none;" d="M175.333 224.667L175.667 225.333L175.333 224.667z"/>
<path style="fill:#a09582; stroke:none;" d="M192 224L193 225L192 224z"/>
<path style="fill:#e5c18b; stroke:none;" d="M196 224L197 225L196 224z"/>
<path style="fill:#6c6355; stroke:none;" d="M210 224L211 225L210 224M214 224L215 225L214 224z"/>
<path style="fill:#e5c18b; stroke:none;" d="M234 224L235 225L234 224z"/>
<path style="fill:#6c6355; stroke:none;" d="M235 224L236 225L235 224z"/>
<path style="fill:#010101; stroke:none;" d="M236 224.649C214.918 231.002 225.095 261.434 245.999 255.362C265.845 249.598 255.472 218.781 236 224.649z"/>
<path style="fill:#6c6355; stroke:none;" d="M245 224L246 225L245 224z"/>
<path style="fill:#e5c18b; stroke:none;" d="M246 224L247 225L246 224z"/>
<path style="fill:#6c6355; stroke:none;" d="M266 224L267 225L266 224M270 224L271 225L270 224z"/>
<path style="fill:#a09582; stroke:none;" d="M284 224L285 225L284 224M288 224L289 225L288 224z"/>
<path style="fill:#e5c18b; stroke:none;" d="M295 224L296 225L295 224z"/>
<path style="fill:#6c6355; stroke:none;" d="M296 224L297 225L296 224z"/>
<path style="fill:#a09582; stroke:none;" d="M297 224L298 225L297 224z"/>
<path style="fill:#6c6355; stroke:none;" d="M305.333 224.667L305.667 225.333L305.333 224.667M192 225L193 226L192 225M217 225L218 226L217 225z"/>
<path style="fill:#a09582; stroke:none;" d="M221 225L222 226L221 225z"/>
<path style="fill:#e5c18b; stroke:none;" d="M232 225L233 226L232 225z"/>
<path style="fill:#6c6355; stroke:none;" d="M233 225L234 226L233 225M247 225L248 226L247 225z"/>
<path style="fill:#e5c18b; stroke:none;" d="M248 225L248 226C263.238 235 257.087 251.095 243 257L243 258C260.278 255.41 268.41 229.853 248 225M266 225L267 226L266 225z"/>
<path style="fill:#6c6355; stroke:none;" d="M288 225L289 226L288 225z"/>
<path style="fill:#010101; stroke:none;" d="M295 225L298 229L298 225L295 225z"/>
<path style="fill:#f4e1c0; stroke:none;" d="M298 225L299 226L298 225z"/>
<path style="fill:#6c6355; stroke:none;" d="M178 226L179 227L178 226M195 226L196 227L195 226z"/>
<path style="fill:#a09582; stroke:none;" d="M209 226L210 227L209 226z"/>
<path style="fill:#6c6355; stroke:none;" d="M213 226L214 227L213 226z"/>
<path style="fill:#e5c18b; stroke:none;" d="M216 226L217 227L216 226z"/>
<path style="fill:#a09582; stroke:none;" d="M231 226L232 227L231 226z"/>
<path style="fill:#6c6355; stroke:none;" d="M249 226L250 227L249 226M267 226L268 227L267 226z"/>
<path style="fill:#a09582; stroke:none;" d="M271 226L272 227L271 226z"/>
<path style="fill:#6c6355; stroke:none;" d="M285 226L286 227L285 226M302.333 226.667L302.667 227.333L302.333 226.667z"/>
<path style="fill:#a09582; stroke:none;" d="M178 227L179 228L178 227M191 227L192 228L191 227M195 227L196 228L195 227z"/>
<path style="fill:#6c6355; stroke:none;" d="M216 227L217 228L216 227z"/>
<path style="fill:#a09582; stroke:none;" d="M220 227L221 228L220 227z"/>
<path style="fill:#6c6355; stroke:none;" d="M230 227L231 228L230 227M237 227L238 228L237 227z"/>
<path style="fill:#a09582; stroke:none;" d="M238 227L238 228L243 228L238 227z"/>
<path style="fill:#6c6355; stroke:none;" d="M243 227L244 228L243 227M250 227L251 228L250 227z"/>
<path style="fill:#e5c18b; stroke:none;" d="M267 227L268 228L267 227z"/>
<path style="fill:#a09582; stroke:none;" d="M285 227L286 228L285 227M289 227L290 228L289 227M298 227L299 228L298 227M174 228L175 229L174 228z"/>
<path style="fill:#6c6355; stroke:none;" d="M191 228L192 229L191 228z"/>
<path style="fill:#a09582; stroke:none;" d="M208 228L209 229L208 228z"/>
<path style="fill:#6c6355; stroke:none;" d="M212 228L213 229L212 228M219 228L220 229L219 228z"/>
<path style="fill:#a09582; stroke:none;" d="M228 228L229 229L228 228z"/>
<path style="fill:#6c6355; stroke:none;" d="M234 228L235 229L234 228z"/>
<path style="fill:#f4e1c0; stroke:none;" d="M235.015 228.742C220.639 234.402 230.326 257.887 244.999 252.258C260.781 246.203 250.731 222.556 235.015 228.742z"/>
<path style="fill:#e5c18b; stroke:none;" d="M245 228L246 229L245 228z"/>
<path style="fill:#6c6355; stroke:none;" d="M246 228L247 229L246 228z"/>
<path style="fill:#a09582; stroke:none;" d="M252 228L253 229L252 228z"/>
<path style="fill:#6c6355; stroke:none;" d="M268 228L269 229L268 228z"/>
<path style="fill:#a09582; stroke:none;" d="M272 228L273 229L272 228z"/>
<path style="fill:#e5c18b; stroke:none;" d="M285 228L286 229L285 228z"/>
<path style="fill:#6c6355; stroke:none;" d="M289 228L290 229L289 228z"/>
<path style="fill:#a09582; stroke:none;" d="M295 228L296 229L295 228M302 228L303 229L302 228M306 228L307 229L306 228z"/>
<path style="fill:#6c6355; stroke:none;" d="M174 229L175 230L174 229M194.333 229.667L194.667 230.333L194.333 229.667M208.333 229.667L208.667 230.333L208.333 229.667M215.333 229.667L215.667 230.333L215.333 229.667z"/>
<path style="fill:#e5c18b; stroke:none;" d="M219 229L220 230L219 229z"/>
<path style="fill:#a09582; stroke:none;" d="M227 229L228 230L227 229z"/>
<path style="fill:#6c6355; stroke:none;" d="M232 229L233 230L232 229z"/>
<path style="fill:#e5c18b; stroke:none;" d="M247 229L248 230L247 229z"/>
<path style="fill:#6c6355; stroke:none;" d="M248 229L249 230L248 229z"/>
<path style="fill:#a09582; stroke:none;" d="M253 229L254 230L253 229z"/>
<path style="fill:#6c6355; stroke:none;" d="M272.333 229.667L272.667 230.333L272.333 229.667M286.333 229.667L286.667 230.333L286.333 229.667M306 229L307 230L306 229M177 230L177 233L178 233L177 230M211 230L212 231L211 230z"/>
<path style="fill:#e5c18b; stroke:none;" d="M226 230L227 231L226 230z"/>
<path style="fill:#6c6355; stroke:none;" d="M231 230L232 231L231 230M249 230L250 231L249 230M269 230L270 231L269 230z"/>
<path style="fill:#a09582; stroke:none;" d="M190 231L191 232L190 231M194 231L195 232L194 231M211 231L212 232L211 231M215 231L216 232L215 231M218 231L219 232L218 231z"/>
<path style="fill:#6c6355; stroke:none;" d="M226 231L227 232L226 231M230 231L231 232L230 231M250 231L251 232L250 231M254 231L255 232L254 231z"/>
<path style="fill:#a09582; stroke:none;" d="M269 231L270 232L269 231M286 231L287 232L286 231M290 231L291 232L290 231z"/>
<path style="fill:#6c6355; stroke:none;" d="M303 231L303 234L304 234L303 231M190 232L190 235L191 235L190 232z"/>
<path style="fill:#e5c18b; stroke:none;" d="M194 232L195 233L194 232z"/>
<path style="fill:#a09582; stroke:none;" d="M225 232L226 233L225 232M255 232L256 233L255 232z"/>
<path style="fill:#e5c18b; stroke:none;" d="M269 232L270 233L269 232M286 232L287 233L286 232z"/>
<path style="fill:#6c6355; stroke:none;" d="M290 232L290 235L291 235L290 232z"/>
<path style="fill:#e5c18b; stroke:none;" d="M296 232L297 233L296 232z"/>
<path style="fill:#6c6355; stroke:none;" d="M297 232L297 236L298 236L297 232z"/>
<path style="fill:#a09582; stroke:none;" d="M298 232L299 233L298 232M177.333 233.667L177.667 234.333L177.333 233.667M207 233L208 234L207 233z"/>
<path style="fill:#e5c18b; stroke:none;" d="M229 233L230 234L229 233z"/>
<path style="fill:#6c6355; stroke:none;" d="M246.667 233.333L247.333 233.667L246.667 233.333z"/>
<path style="fill:#e5c18b; stroke:none;" d="M248 233L249 234L248 233M251 233L252 234L251 233z"/>
<path style="fill:#a09582; stroke:none;" d="M273 233L274 234L273 233z"/>
<path style="fill:#010101; stroke:none;" d="M297 233L297 235L299 235L299 233L297 233z"/>
<path style="fill:#6c6355; stroke:none;" d="M207.333 234.667L207.667 235.333L207.333 234.667M210 234L211 235L210 234M214.667 234.333L215.333 234.667L214.667 234.333z"/>
<path style="fill:#a09582; stroke:none;" d="M216 234L217 235L216 234z"/>
<path style="fill:#e5c18b; stroke:none;" d="M224 234L225 235L224 234z"/>
<path style="fill:#6c6355; stroke:none;" d="M228 234L229 235L228 234z"/>
<path style="fill:#010101; stroke:none;" d="M246 234L246 236L249 236L249 234L246 234z"/>
<path style="fill:#6c6355; stroke:none;" d="M252 234L253 235L252 234z"/>
<path style="fill:#a09582; stroke:none;" d="M256 234L257 235L256 234z"/>
<path style="fill:#6c6355; stroke:none;" d="M270 234L271 235L270 234M273.333 234.667L273.667 235.333L273.333 234.667z"/>
<path style="fill:#a09582; stroke:none;" d="M303.333 234.667L303.667 235.333L303.333 234.667M173 235L173 245L174 245L173 235z"/>
<path style="fill:#e5c18b; stroke:none;" d="M177 235L178 236L177 235z"/>
<path style="fill:#6c6355; stroke:none;" d="M193 235L193 245L194 245L193 235z"/>
<path style="fill:#a09582; stroke:none;" d="M210 235L211 236L210 235M213 235L213 238L214 238L213 235z"/>
<path style="fill:#010101; stroke:none;" d="M214 235L214 239L217 239L217 235L214 235z"/>
<path style="fill:#6c6355; stroke:none;" d="M224 235L225 236L224 235z"/>
<path style="fill:#e5c18b; stroke:none;" d="M228 235L229 236L228 235M252 235L253 236L252 235z"/>
<path style="fill:#6c6355; stroke:none;" d="M256 235L257 236L256 235z"/>
<path style="fill:#a09582; stroke:none;" d="M270.333 235.667L270.667 236.333L270.333 235.667z"/>
<path style="fill:#6c6355; stroke:none;" d="M287 235L287 245L288 245L287 235z"/>
<path style="fill:#e5c18b; stroke:none;" d="M296 235L297 236L296 235z"/>
<path style="fill:#a09582; stroke:none;" d="M298 235L299 236L298 235M307 235L307 246L308 246L307 235z"/>
<path style="fill:#e5c18b; stroke:none;" d="M210 236L211 237L210 236z"/>
<path style="fill:#6c6355; stroke:none;" d="M246.667 236.333L247.333 236.667L246.667 236.333z"/>
<path style="fill:#e5c18b; stroke:none;" d="M248 236L249 237L248 236z"/>
<path style="fill:#6c6355; stroke:none;" d="M227 237L228 238L227 237M253 237L254 238L253 237z"/>
<path style="fill:#e5c18b; stroke:none;" d="M270.333 237.667L270.667 238.333L270.333 237.667M213 238L214 239L213 238M223.333 238.667L223.667 239.333L223.333 238.667z"/>
<path style="fill:#a09582; stroke:none;" d="M227 238L227 242L228 242L227 238M247 238L248 239L247 238z"/>
<path style="fill:#6c6355; stroke:none;" d="M248 238L249 239L248 238z"/>
<path style="fill:#a09582; stroke:none;" d="M249 238L250 239L249 238M253 238L253 242L254 242L253 238z"/>
<path style="fill:#e5c18b; stroke:none;" d="M214 239L215 240L214 239z"/>
<path style="fill:#a09582; stroke:none;" d="M215 239L216 240L215 239z"/>
<path style="fill:#e5c18b; stroke:none;" d="M246.333 239.667L246.667 240.333L246.333 239.667z"/>
<path style="fill:#010101; stroke:none;" d="M247 239L247 247L250 239L247 239z"/>
<path style="fill:#e5c18b; stroke:none;" d="M250 239L251 240L250 239z"/>
<path style="fill:#a09582; stroke:none;" d="M257 239L257 242L258 242L257 239M223 240L224 241L223 240z"/>
<path style="fill:#6c6355; stroke:none;" d="M250 240L250 244L251 244L250 240z"/>
<path style="fill:#e5c18b; stroke:none;" d="M213 241L214 242L213 241z"/>
<path style="fill:#010101; stroke:none;" d="M214 241C213.611 244.261 213.689 246.027 217 247L216 241L214 241z"/>
<path style="fill:#e5c18b; stroke:none;" d="M216 241L217 242L216 241M223.333 241.667L223.667 242.333L223.333 241.667M270 241L270 244L271 244L270 241z"/>
<path style="fill:#6c6355; stroke:none;" d="M213 242L214 243L213 242M216.333 242.667L216.667 243.333L216.333 242.667M227.333 242.667L227.667 243.333L227.333 242.667M253.333 242.667L253.667 243.333L253.333 242.667z"/>
<path style="fill:#e5c18b; stroke:none;" d="M210 243L211 244L210 243M246 243L247 244L246 243z"/>
<path style="fill:#6c6355; stroke:none;" d="M207 244L207 247L208 247L207 244z"/>
<path style="fill:#a09582; stroke:none;" d="M210 244L211 245L210 244z"/>
<path style="fill:#6c6355; stroke:none;" d="M213.333 244.667L213.667 245.333L213.333 244.667M224 244L225 245L224 244z"/>
<path style="fill:#a09582; stroke:none;" d="M246 244L247 245L246 244M250 244L251 245L250 244z"/>
<path style="fill:#6c6355; stroke:none;" d="M256 244L257 245L256 244z"/>
<path style="fill:#a09582; stroke:none;" d="M270 244L271 245L270 244z"/>
<path style="fill:#6c6355; stroke:none;" d="M273 244L273 247L274 247L273 244z"/>
<path style="fill:#a09582; stroke:none;" d="M303 244L303 247L304 247L303 244z"/>
<path style="fill:#e5c18b; stroke:none;" d="M173 245L174 246L173 245M177 245L178 246L177 245z"/>
<path style="fill:#6c6355; stroke:none;" d="M190 245L190 248L191 248L190 245M210.333 245.667L210.667 246.333L210.333 245.667z"/>
<path style="fill:#a09582; stroke:none;" d="M224 245L225 246L224 245M228 245L229 246L228 245z"/>
<path style="fill:#6c6355; stroke:none;" d="M246 245L247 246L246 245z"/>
<path style="fill:#a09582; stroke:none;" d="M252 245L253 246L252 245M256 245L257 246L256 245z"/>
<path style="fill:#6c6355; stroke:none;" d="M270.333 245.667L270.667 246.333L270.333 245.667M290 245L290 248L291 248L290 245z"/>
<path style="fill:#a09582; stroke:none;" d="M177.333 246.667L177.667 247.333L177.333 246.667z"/>
<path style="fill:#e5c18b; stroke:none;" d="M213 246L214 247L213 246M246 246L247 247L246 246M249 246L250 247L249 246z"/>
<path style="fill:#a09582; stroke:none;" d="M207 247L208 248L207 247M214 247L215 248L214 247z"/>
<path style="fill:#6c6355; stroke:none;" d="M215 247L216 248L215 247z"/>
<path style="fill:#e5c18b; stroke:none;" d="M216 247L217 248L216 247z"/>
<path style="fill:#6c6355; stroke:none;" d="M225 247L226 248L225 247M229 247L230 248L229 247M251 247L252 248L251 247M255 247L256 248L255 247z"/>
<path style="fill:#a09582; stroke:none;" d="M273 247L274 248L273 247z"/>
<path style="fill:#e5c18b; stroke:none;" d="M286 247L287 248L286 247z"/>
<path style="fill:#6c6355; stroke:none;" d="M303 247L303 250L304 250L303 247M177.333 248.667L177.667 249.333L177.333 248.667z"/>
<path style="fill:#a09582; stroke:none;" d="M190.333 248.667L190.667 249.333L190.333 248.667z"/>
<path style="fill:#e5c18b; stroke:none;" d="M194 248L195 249L194 248M211 248L212 249L211 248M225 248L226 249L225 248M230 248L231 249L230 248z"/>
<path style="fill:#a09582; stroke:none;" d="M250 248L251 249L250 248z"/>
<path style="fill:#e5c18b; stroke:none;" d="M269 248L270 249L269 248z"/>
<path style="fill:#a09582; stroke:none;" d="M286.333 248.667L286.667 249.333L286.333 248.667M290.333 248.667L290.667 249.333L290.333 248.667M194 249L195 250L194 249M211 249L212 250L211 249M226 249L227 250L226 249z"/>
<path style="fill:#e5c18b; stroke:none;" d="M231 249L232 250L231 249M249 249L250 250L249 249z"/>
<path style="fill:#6c6355; stroke:none;" d="M254 249L255 250L254 249M269 249L270 250L269 249M174.333 250.667L174.667 251.333L174.333 250.667M194 250L195 251L194 250M208.333 250.667L208.667 251.333L208.333 250.667M227 250L228 251L227 250z"/>
<path style="fill:#e5c18b; stroke:none;" d="M232 250L233 251L232 250z"/>
<path style="fill:#a09582; stroke:none;" d="M248 250L249 251L248 250z"/>
<path style="fill:#6c6355; stroke:none;" d="M253 250L254 251L253 250M272.333 250.667L272.667 251.333L272.333 250.667M286 250L287 251L286 250M306.333 250.667L306.667 251.333L306.333 250.667M191.333 251.667L191.667 252.333L191.333 251.667z"/>
<path style="fill:#e5c18b; stroke:none;" d="M212 251L213 252L212 251z"/>
<path style="fill:#6c6355; stroke:none;" d="M233 251L234 252L233 251M247 251L248 252L247 251z"/>
<path style="fill:#e5c18b; stroke:none;" d="M268 251L269 252L268 251z"/>
<path style="fill:#a09582; stroke:none;" d="M174 252L175 253L174 252z"/>
<path style="fill:#e5c18b; stroke:none;" d="M178 252L179 253L178 252z"/>
<path style="fill:#6c6355; stroke:none;" d="M212 252L213 253L212 252z"/>
<path style="fill:#e5c18b; stroke:none;" d="M228 252L229 253L228 252z"/>
<path style="fill:#6c6355; stroke:none;" d="M234 252L235 253L234 252z"/>
<path style="fill:#e5c18b; stroke:none;" d="M235 252L236 253L235 252M245 252L246 253L245 252z"/>
<path style="fill:#6c6355; stroke:none;" d="M246 252L247 253L246 252M268 252L269 253L268 252z"/>
<path style="fill:#e5c18b; stroke:none;" d="M285 252L286 253L285 252z"/>
<path style="fill:#6c6355; stroke:none;" d="M289 252L290 253L289 252z"/>
<path style="fill:#a09582; stroke:none;" d="M302 252L303 253L302 252M306 252L307 253L306 252M178 253L179 254L178 253M191 253L192 254L191 253M195 253L196 254L195 253z"/>
<path style="fill:#6c6355; stroke:none;" d="M209 253L210 254L209 253z"/>
<path style="fill:#e5c18b; stroke:none;" d="M213 253L214 254L213 253z"/>
<path style="fill:#6c6355; stroke:none;" d="M230 253L231 254L230 253M237 253L237 254L244 254L237 253M250 253L251 254L250 253z"/>
<path style="fill:#e5c18b; stroke:none;" d="M267 253L268 254L267 253z"/>
<path style="fill:#6c6355; stroke:none;" d="M271 253L272 254L271 253M285 253L286 254L285 253z"/>
<path style="fill:#a09582; stroke:none;" d="M289 253L290 254L289 253z"/>
<path style="fill:#6c6355; stroke:none;" d="M302.333 253.667L302.667 254.333L302.333 253.667M178 254L179 255L178 254z"/>
<path style="fill:#a09582; stroke:none;" d="M209 254L210 255L209 254z"/>
<path style="fill:#6c6355; stroke:none;" d="M232 254L233 255L232 254M248 254L249 255L248 254z"/>
<path style="fill:#a09582; stroke:none;" d="M271 254L272 255L271 254z"/>
<path style="fill:#6c6355; stroke:none;" d="M175 255L176 256L175 255M192 255L193 256L192 255M210 255L211 256L210 255z"/>
<path style="fill:#a09582; stroke:none;" d="M214 255L215 256L214 255z"/>
<path style="fill:#e5c18b; stroke:none;" d="M233 255L234 256L233 255z"/>
<path style="fill:#6c6355; stroke:none;" d="M234 255L235 256L234 255M246 255L247 256L246 255z"/>
<path style="fill:#a09582; stroke:none;" d="M266 255L267 256L266 255z"/>
<path style="fill:#6c6355; stroke:none;" d="M270 255L271 256L270 255z"/>
<path style="fill:#e5c18b; stroke:none;" d="M284 255L285 256L284 255z"/>
<path style="fill:#6c6355; stroke:none;" d="M288 255L289 256L288 255M305 255L306 256L305 255z"/>
<path style="fill:#a09582; stroke:none;" d="M175 256L176 257L175 256z"/>
<path style="fill:#e5c18b; stroke:none;" d="M179 256L180 257L179 256z"/>
<path style="fill:#a09582; stroke:none;" d="M192 256L193 257L192 256M196 256L197 257L196 256M236 256L237 257L236 256z"/>
<path style="fill:#6c6355; stroke:none;" d="M237 256L237 257L244 257L237 256z"/>
<path style="fill:#a09582; stroke:none;" d="M244 256L245 257L244 256z"/>
<path style="fill:#e5c18b; stroke:none;" d="M265 256L266 257L265 256z"/>
<path style="fill:#a09582; stroke:none;" d="M284 256L285 257L284 256M288 256L289 257L288 256M301 256L302 257L301 256M305 256L306 257L305 256z"/>
<path style="fill:#6c6355; stroke:none;" d="M179 257L180 258L179 257M196 257L197 258L196 257M211 257L212 258L211 257M215 257L216 258L215 257M265 257L266 258L265 257M269 257L270 258L269 257M284 257L285 258L284 257M301 257L302 258L301 257M193 258L194 259L193 258z"/>
<path style="fill:#a09582; stroke:none;" d="M216 258L217 259L216 258M264 258L265 259L264 258z"/>
<path style="fill:#6c6355; stroke:none;" d="M287 258L288 259L287 258M176 259L177 260L176 259z"/>
<path style="fill:#a09582; stroke:none;" d="M197 259L198 260L197 259M212 259L213 260L212 259z"/>
<path style="fill:#e5c18b; stroke:none;" d="M217 259L218 260L217 259z"/>
<path style="fill:#a09582; stroke:none;" d="M263 259L264 260L263 259M268 259L269 260L268 259M283 259L284 260L283 259z"/>
<path style="fill:#6c6355; stroke:none;" d="M304 259L305 260L304 259z"/>
<path style="fill:#a09582; stroke:none;" d="M176 260L177 261L176 260M180 260L181 261L180 260z"/>
<path style="fill:#6c6355; stroke:none;" d="M184 260L183 263L184 263L184 260z"/>
<path style="fill:#a09582; stroke:none;" d="M185 260L187 262L185 260z"/>
<path style="fill:#6c6355; stroke:none;" d="M194 260L195 261L194 260M197 260L198 261L197 260M213 260L214 261L213 260z"/>
<path style="fill:#e5c18b; stroke:none;" d="M262 260L263 261L262 260z"/>
<path style="fill:#6c6355; stroke:none;" d="M267 260L268 261L267 260M283 260L284 261L283 260M286 260L287 261L286 260M300 260L301 261L300 260M180 261L181 262L180 261z"/>
<path style="fill:#010101; stroke:none;" d="M184 261C184.404 264.908 185.101 267.664 189 269L186 261L184 261z"/>
<path style="fill:#a09582; stroke:none;" d="M194 261L195 262L194 261z"/>
<path style="fill:#e5c18b; stroke:none;" d="M198 261L199 262L198 261z"/>
<path style="fill:#6c6355; stroke:none;" d="M214 261L215 262L214 261z"/>
<path style="fill:#e5c18b; stroke:none;" d="M261 261L262 262L261 261z"/>
<path style="fill:#6c6355; stroke:none;" d="M266 261L267 262L266 261z"/>
<path style="fill:#a09582; stroke:none;" d="M282 261L283 262L282 261M286 261L287 262L286 261z"/>
<path style="fill:#6c6355; stroke:none;" d="M177 262L178 263L177 262M195 262L196 263L195 262M198 262L199 263L198 262z"/>
<path style="fill:#e5c18b; stroke:none;" d="M260 262L261 263L260 262z"/>
<path style="fill:#6c6355; stroke:none;" d="M282 262L283 263L282 262M285 262L286 263L285 262z"/>
<path style="fill:#a09582; stroke:none;" d="M299 262L300 263L299 262z"/>
<path style="fill:#6c6355; stroke:none;" d="M303 262L304 263L303 262M181 263L182 264L181 263z"/>
<path style="fill:#a09582; stroke:none;" d="M183 263L184 264L183 263M187 263L188 264L187 263M195 263L196 264L195 263M199 263L200 264L199 263z"/>
<path style="fill:#e5c18b; stroke:none;" d="M259 263L260 264L259 263z"/>
<path style="fill:#a09582; stroke:none;" d="M281 263L282 264L281 263M285 263L286 264L285 263z"/>
<path style="fill:#6c6355; stroke:none;" d="M299 263L300 264L299 263z"/>
<path style="fill:#e5c18b; stroke:none;" d="M258 264L259 265L258 264z"/>
<path style="fill:#a09582; stroke:none;" d="M274 264L273 266L274 264z"/>
<path style="fill:#6c6355; stroke:none;" d="M275 264L276 265L275 264z"/>
<path style="fill:#a09582; stroke:none;" d="M276 264L277 265L276 264M178 265L179 266L178 265M182 265L183 266L182 265z"/>
<path style="fill:#6c6355; stroke:none;" d="M184 265L185 266L184 265z"/>
<path style="fill:#a09582; stroke:none;" d="M188 265L189 266L188 265M196 265L197 266L196 265z"/>
<path style="fill:#6c6355; stroke:none;" d="M200 265L201 266L200 265z"/>
<path style="fill:#e5c18b; stroke:none;" d="M217 265L218 266L217 265z"/>
<path style="fill:#6c6355; stroke:none;" d="M218 265L219 266L218 265M223 265L224 266L223 265z"/>
<path style="fill:#e5c18b; stroke:none;" d="M256 265L257 266L256 265z"/>
<path style="fill:#6c6355; stroke:none;" d="M257 265L258 266L257 265M262 265L263 266L262 265z"/>
<path style="fill:#010101; stroke:none;" d="M273 269L277 265L273 269z"/>
<path style="fill:#e5c18b; stroke:none;" d="M277 265L278 266L277 265z"/>
<path style="fill:#6c6355; stroke:none;" d="M280 265L281 266L280 265z"/>
<path style="fill:#a09582; stroke:none;" d="M284 265L285 266L284 265z"/>
<path style="fill:#6c6355; stroke:none;" d="M298 265L299 266L298 265z"/>
<path style="fill:#a09582; stroke:none;" d="M302 265L303 266L302 265z"/>
<path style="fill:#e5c18b; stroke:none;" d="M189 266L190 267L189 266z"/>
<path style="fill:#6c6355; stroke:none;" d="M197 266L198 267L197 266M201 266L202 267L201 266z"/>
<path style="fill:#a09582; stroke:none;" d="M219 266L220 267L219 266z"/>
<path style="fill:#6c6355; stroke:none;" d="M225 266L226 267L225 266z"/>
<path style="fill:#e5c18b; stroke:none;" d="M254 266L255 267L254 266z"/>
<path style="fill:#6c6355; stroke:none;" d="M255 266L256 267L255 266z"/>
<path style="fill:#a09582; stroke:none;" d="M261 266L262 267L261 266z"/>
<path style="fill:#e5c18b; stroke:none;" d="M272 266L273 267L272 266z"/>
<path style="fill:#6c6355; stroke:none;" d="M279 266L280 267L279 266M283 266L284 267L283 266z"/>
<path style="fill:#a09582; stroke:none;" d="M179 267L180 268L179 267M183 267L184 268L183 267M185 267L186 268L185 267M189.333 267.667L189.667 268.333L189.333 267.667z"/>
<path style="fill:#e5c18b; stroke:none;" d="M202 267L203 268L202 267M220 267L221 268L220 267z"/>
<path style="fill:#6c6355; stroke:none;" d="M227 267L228 268L227 267z"/>
<path style="fill:#e5c18b; stroke:none;" d="M228 267L229 268L228 267M252 267L253 268L252 267z"/>
<path style="fill:#6c6355; stroke:none;" d="M253 267L254 268L253 267z"/>
<path style="fill:#a09582; stroke:none;" d="M272 267L273 268L272 267z"/>
<path style="fill:#6c6355; stroke:none;" d="M276 267L277 268L276 267z"/>
<path style="fill:#e5c18b; stroke:none;" d="M278 267L279 268L278 267z"/>
<path style="fill:#a09582; stroke:none;" d="M297 267L298 268L297 267M301 267L302 268L301 267z"/>
<path style="fill:#6c6355; stroke:none;" d="M183 268L184 269L183 268M198 268L199 269L198 268z"/>
<path style="fill:#e5c18b; stroke:none;" d="M221 268L222 269L221 268z"/>
<path style="fill:#6c6355; stroke:none;" d="M222 268L223 269L222 268M229 268L230 269L229 268z"/>
<path style="fill:#a09582; stroke:none;" d="M230 268L231 269L230 268M250 268L251 269L250 268z"/>
<path style="fill:#6c6355; stroke:none;" d="M251 268L252 269L251 268M258 268L259 269L258 268z"/>
<path style="fill:#e5c18b; stroke:none;" d="M272 268L273 269L272 268z"/>
<path style="fill:#6c6355; stroke:none;" d="M275 268L276 269L275 268M282 268L283 269L282 268M297 268L298 269L297 268z"/>
<path style="fill:#a09582; stroke:none;" d="M180 269L181 270L180 269z"/>
<path style="fill:#e5c18b; stroke:none;" d="M186 269L187 270L186 269z"/>
<path style="fill:#6c6355; stroke:none;" d="M187 269L188 270L187 269z"/>
<path style="fill:#a09582; stroke:none;" d="M188 269L189 270L188 269z"/>
<path style="fill:#6c6355; stroke:none;" d="M199 269L200 270L199 269M203 269L204 270L203 269z"/>
<path style="fill:#a09582; stroke:none;" d="M223 269L224 270L223 269z"/>
<path style="fill:#6c6355; stroke:none;" d="M232 269L233 270L232 269z"/>
<path style="fill:#a09582; stroke:none;" d="M233 269L234 270L233 269z"/>
<path style="fill:#e5c18b; stroke:none;" d="M234 269L235 270L234 269M246 269L247 270L246 269z"/>
<path style="fill:#a09582; stroke:none;" d="M247 269L248 270L247 269z"/>
<path style="fill:#6c6355; stroke:none;" d="M248 269L249 270L248 269z"/>
<path style="fill:#a09582; stroke:none;" d="M257 269L258 270L257 269z"/>
<path style="fill:#e5c18b; stroke:none;" d="M273.667 269.333L274.333 269.667L273.667 269.333z"/>
<path style="fill:#6c6355; stroke:none;" d="M277 269L278 270L277 269M281 269L282 270L281 269z"/>
<path style="fill:#a09582; stroke:none;" d="M300 269L301 270L300 269z"/>
<path style="fill:#6c6355; stroke:none;" d="M184 270L185 271L184 270z"/>
<path style="fill:#a09582; stroke:none;" d="M190 270L191 271L190 270z"/>
<path style="fill:#e5c18b; stroke:none;" d="M191 270L193 272L191 270z"/>
<path style="fill:#6c6355; stroke:none;" d="M204 270L205 271L204 270z"/>
<path style="fill:#a09582; stroke:none;" d="M225 270L226 271L225 270z"/>
<path style="fill:#6c6355; stroke:none;" d="M237 270L237 271L244 271L237 270M255 270L256 271L255 270z"/>
<path style="fill:#e5c18b; stroke:none;" d="M268 270L269 271L268 270z"/>
<path style="fill:#010101; stroke:none;" d="M263 277C267.493 276.498 269.823 274.967 272 271C267.665 270.899 265.018 273.235 263 277z"/>
<path style="fill:#a09582; stroke:none;" d="M271 270L272 271L271 270z"/>
<path style="fill:#6c6355; stroke:none;" d="M276 270L277 271L276 270M296 270L297 271L296 270z"/>
<path style="fill:#a09582; stroke:none;" d="M181 271L182 272L181 271z"/>
<path style="fill:#6c6355; stroke:none;" d="M189 271L190 272L189 271z"/>
<path style="fill:#010101; stroke:none;" d="M190 271L189 274L193 275L192 271L190 271z"/>
<path style="fill:#a09582; stroke:none;" d="M200 271L201 272L200 271M205 271L206 272L205 271M227 271L228 272L227 271z"/>
<path style="fill:#6c6355; stroke:none;" d="M228 271L229 272L228 271M252 271L253 272L252 271z"/>
<path style="fill:#a09582; stroke:none;" d="M253 271L254 272L253 271z"/>
<path style="fill:#e5c18b; stroke:none;" d="M254 271L255 272L254 271z"/>
<path style="fill:#a09582; stroke:none;" d="M275 271L276 272L275 271M280 271L281 272L280 271M299 271L300 272L299 271z"/>
<path style="fill:#6c6355; stroke:none;" d="M185 272L186 273L185 272M192 272L193 273L192 272M201 272L202 273L201 272z"/>
<path style="fill:#a09582; stroke:none;" d="M206 272L207 273L206 272z"/>
<path style="fill:#e5c18b; stroke:none;" d="M229 272L230 273L229 272z"/>
<path style="fill:#a09582; stroke:none;" d="M230 272L231 273L230 272z"/>
<path style="fill:#6c6355; stroke:none;" d="M231 272L232 273L231 272M249 272L250 273L249 272z"/>
<path style="fill:#a09582; stroke:none;" d="M250 272L251 273L250 272z"/>
<path style="fill:#e5c18b; stroke:none;" d="M251 272L252 273L251 272M266 272L267 273L266 272z"/>
<path style="fill:#6c6355; stroke:none;" d="M271 272L272 273L271 272z"/>
<path style="fill:#a09582; stroke:none;" d="M274 272L275 273L274 272z"/>
<path style="fill:#6c6355; stroke:none;" d="M279 272L280 273L279 272M295 272L296 273L295 272z"/>
<path style="fill:#a09582; stroke:none;" d="M182 273L183 274L182 273M186 273L187 274L186 273z"/>
<path style="fill:#e5c18b; stroke:none;" d="M193 273L194 274L193 273z"/>
<path style="fill:#6c6355; stroke:none;" d="M202 273L203 274L202 273z"/>
<path style="fill:#a09582; stroke:none;" d="M207 273L208 274L207 273z"/>
<path style="fill:#e5c18b; stroke:none;" d="M233 273L234 274L233 273z"/>
<path style="fill:#6c6355; stroke:none;" d="M234.667 273.333L235.333 273.667L234.667 273.333M245.667 273.333L246.333 273.667L245.667 273.333z"/>
<path style="fill:#e5c18b; stroke:none;" d="M247 273L248 274L247 273z"/>
<path style="fill:#6c6355; stroke:none;" d="M265 273L266 274L265 273z"/>
<path style="fill:#e5c18b; stroke:none;" d="M271 273L272 274L271 273z"/>
<path style="fill:#a09582; stroke:none;" d="M273 273L274 274L273 273z"/>
<path style="fill:#6c6355; stroke:none;" d="M278 273L279 274L278 273z"/>
<path style="fill:#a09582; stroke:none;" d="M294 273L295 274L294 273M298 273L299 274L298 273M189 274L190 275L189 274z"/>
<path style="fill:#6c6355; stroke:none;" d="M203 274L204 275L203 274z"/>
<path style="fill:#e5c18b; stroke:none;" d="M208 274L209 275L208 274z"/>
<path style="fill:#a09582; stroke:none;" d="M263 274L264 275L263 274z"/>
<path style="fill:#e5c18b; stroke:none;" d="M270 274L271 275L270 274M272 274L273 275L272 274z"/>
<path style="fill:#6c6355; stroke:none;" d="M277 274L278 275L277 274z"/>
<path style="fill:#a09582; stroke:none;" d="M183 275L184 276L183 275z"/>
<path style="fill:#6c6355; stroke:none;" d="M187 275L188 276L187 275z"/>
<path style="fill:#a09582; stroke:none;" d="M190 275L191 276L190 275z"/>
<path style="fill:#6c6355; stroke:none;" d="M191 275L192 276L191 275z"/>
<path style="fill:#e5c18b; stroke:none;" d="M192 275L193 276L192 275z"/>
<path style="fill:#6c6355; stroke:none;" d="M204 275L205 276L204 275z"/>
<path style="fill:#e5c18b; stroke:none;" d="M269 275L270 276L269 275M271 275L272 276L271 275z"/>
<path style="fill:#6c6355; stroke:none;" d="M276 275L277 276L276 275M293 275L294 276L293 275z"/>
<path style="fill:#a09582; stroke:none;" d="M297 275L298 276L297 275z"/>
<path style="fill:#e5c18b; stroke:none;" d="M188 276L189 277L188 276z"/>
<path style="fill:#6c6355; stroke:none;" d="M205 276L206 277L205 276z"/>
<path style="fill:#e5c18b; stroke:none;" d="M210 276L211 277L210 276z"/>
<path style="fill:#a09582; stroke:none;" d="M267 276L268 277L267 276z"/>
<path style="fill:#e5c18b; stroke:none;" d="M270 276L271 277L270 276z"/>
<path style="fill:#6c6355; stroke:none;" d="M275 276L276 277L275 276z"/>
<path style="fill:#a09582; stroke:none;" d="M292 276L293 277L292 276M184 277L185 278L184 277z"/>
<path style="fill:#6c6355; stroke:none;" d="M206 277L207 278L206 277z"/>
<path style="fill:#a09582; stroke:none;" d="M211 277L212 278L211 277z"/>
<path style="fill:#e5c18b; stroke:none;" d="M263 277L264 278L263 277z"/>
<path style="fill:#6c6355; stroke:none;" d="M264.667 277.333L265.333 277.667L264.667 277.333z"/>
<path style="fill:#a09582; stroke:none;" d="M269 277L270 278L269 277z"/>
<path style="fill:#6c6355; stroke:none;" d="M274 277L275 278L274 277M185 278L186 279L185 278M189 278L190 279L189 278z"/>
<path style="fill:#a09582; stroke:none;" d="M207 278L208 279L207 278z"/>
<path style="fill:#6c6355; stroke:none;" d="M212 278L213 279L212 278z"/>
<path style="fill:#a09582; stroke:none;" d="M213 278L214 279L213 278M267 278L268 279L267 278z"/>
<path style="fill:#6c6355; stroke:none;" d="M268 278L269 279L268 278z"/>
<path style="fill:#a09582; stroke:none;" d="M273 278L274 279L273 278z"/>
<path style="fill:#6c6355; stroke:none;" d="M295 278L294 280L295 278M186 279L187 280L186 279z"/>
<path style="fill:#a09582; stroke:none;" d="M208 279L209 280L208 279z"/>
<path style="fill:#6c6355; stroke:none;" d="M214 279L215 280L214 279z"/>
<path style="fill:#e5c18b; stroke:none;" d="M215 279L216 280L215 279M265 279L266 280L265 279z"/>
<path style="fill:#6c6355; stroke:none;" d="M266 279L267 280L266 279z"/>
<path style="fill:#a09582; stroke:none;" d="M272 279L273 280L272 279z"/>
<path style="fill:#6c6355; stroke:none;" d="M191 280L192 281L191 280z"/>
<path style="fill:#a09582; stroke:none;" d="M209 280L210 281L209 280M216 280L217 281L216 280M264 280L265 281L264 280z"/>
<path style="fill:#e5c18b; stroke:none;" d="M271 280L272 281L271 280z"/>
<path style="fill:#6c6355; stroke:none;" d="M289 280L290 281L289 280M192 281L193 282L192 281z"/>
<path style="fill:#e5c18b; stroke:none;" d="M210 281L211 282L210 281z"/>
<path style="fill:#6c6355; stroke:none;" d="M211 281L212 282L211 281z"/>
<path style="fill:#a09582; stroke:none;" d="M218 281L219 282L218 281M262 281L263 282L262 281z"/>
<path style="fill:#6c6355; stroke:none;" d="M269 281L270 282L269 281M288 281L289 282L288 281z"/>
<path style="fill:#a09582; stroke:none;" d="M188 282L190 284L188 282M193 282L194 283L193 282M212 282L213 283L212 282z"/>
<path style="fill:#6c6355; stroke:none;" d="M219 282L220 283L219 282z"/>
<path style="fill:#a09582; stroke:none;" d="M220 282L221 283L220 282M260 282L261 283L260 282z"/>
<path style="fill:#6c6355; stroke:none;" d="M261 282L262 283L261 282z"/>
<path style="fill:#a09582; stroke:none;" d="M268 282L269 283L268 282z"/>
<path style="fill:#6c6355; stroke:none;" d="M287 282L288 283L287 282z"/>
<path style="fill:#a09582; stroke:none;" d="M292 282L291 284L292 282M194 283L195 284L194 283z"/>
<path style="fill:#e5c18b; stroke:none;" d="M213 283L214 284L213 283z"/>
<path style="fill:#6c6355; stroke:none;" d="M214 283L215 284L214 283M221 283L222 284L221 283z"/>
<path style="fill:#e5c18b; stroke:none;" d="M222 283L223 284L222 283M258 283L259 284L258 283z"/>
<path style="fill:#6c6355; stroke:none;" d="M259 283L260 284L259 283M266 283L267 284L266 283z"/>
<path style="fill:#a09582; stroke:none;" d="M286 283L287 284L286 283z"/>
<path style="fill:#6c6355; stroke:none;" d="M190 284L191 285L190 284z"/>
<path style="fill:#a09582; stroke:none;" d="M195 284L196 285L195 284z"/>
<path style="fill:#e5c18b; stroke:none;" d="M215 284L216 285L215 284z"/>
<path style="fill:#6c6355; stroke:none;" d="M216 284L217 285L216 284M223 284L224 285L223 284z"/>
<path style="fill:#a09582; stroke:none;" d="M224 284L225 285L224 284z"/>
<path style="fill:#e5c18b; stroke:none;" d="M225 284L226 285L225 284z"/>
<path style="fill:#a09582; stroke:none;" d="M256 284L257 285L256 284z"/>
<path style="fill:#6c6355; stroke:none;" d="M257 284L258 285L257 284M264 284L265 285L264 284z"/>
<path style="fill:#e5c18b; stroke:none;" d="M265 284L266 285L265 284z"/>
<path style="fill:#a09582; stroke:none;" d="M285 284L286 285L285 284z"/>
<path style="fill:#6c6355; stroke:none;" d="M290 284L291 285L290 284M191 285L192 286L191 285z"/>
<path style="fill:#e5c18b; stroke:none;" d="M196 285L197 286L196 285M217 285L218 286L217 285z"/>
<path style="fill:#6c6355; stroke:none;" d="M218 285L219 286L218 285M226 285L227 286L226 285z"/>
<path style="fill:#a09582; stroke:none;" d="M227 285L228 286L227 285z"/>
<path style="fill:#e5c18b; stroke:none;" d="M228 285L229 286L228 285M252 285L253 286L252 285z"/>
<path style="fill:#a09582; stroke:none;" d="M253 285L254 286L253 285z"/>
<path style="fill:#6c6355; stroke:none;" d="M254 285L255 286L254 285M262 285L263 286L262 285z"/>
<path style="fill:#e5c18b; stroke:none;" d="M263 285L264 286L263 285z"/>
<path style="fill:#a09582; stroke:none;" d="M284 285L285 286L284 285z"/>
<path style="fill:#6c6355; stroke:none;" d="M289 285L290 286L289 285M192 286L193 287L192 286z"/>
<path style="fill:#e5c18b; stroke:none;" d="M219 286L220 287L219 286z"/>
<path style="fill:#6c6355; stroke:none;" d="M220 286L221 287L220 286M230 286L231 287L230 286z"/>
<path style="fill:#a09582; stroke:none;" d="M231.667 286.333L232.333 286.667L231.667 286.333z"/>
<path style="fill:#e5c18b; stroke:none;" d="M233 286L234 287L233 286M247 286L248 287L247 286z"/>
<path style="fill:#a09582; stroke:none;" d="M248.667 286.333L249.333 286.667L248.667 286.333z"/>
<path style="fill:#6c6355; stroke:none;" d="M250 286L251 287L250 286M260 286L261 287L260 286z"/>
<path style="fill:#e5c18b; stroke:none;" d="M261 286L262 287L261 286z"/>
<path style="fill:#6c6355; stroke:none;" d="M288 286L289 287L288 286M193 287L194 288L193 287z"/>
<path style="fill:#e5c18b; stroke:none;" d="M221 287L222 288L221 287z"/>
<path style="fill:#6c6355; stroke:none;" d="M222 287L223 288L222 287M236 287L236 288L245 288L236 287M258 287L259 288L258 287z"/>
<path style="fill:#e5c18b; stroke:none;" d="M259 287L260 288L259 287z"/>
<path style="fill:#6c6355; stroke:none;" d="M287 287L288 288L287 287M194 288L195 289L194 288z"/>
<path style="fill:#a09582; stroke:none;" d="M224 288L225 289L224 288z"/>
<path style="fill:#6c6355; stroke:none;" d="M225 288L226 289L225 288M255 288L256 289L255 288z"/>
<path style="fill:#a09582; stroke:none;" d="M256 288L257 289L256 288z"/>
<path style="fill:#6c6355; stroke:none;" d="M286 288L287 289L286 288M195 289L196 290L195 289z"/>
<path style="fill:#e5c18b; stroke:none;" d="M200 289L201 290L200 289z"/>
<path style="fill:#a09582; stroke:none;" d="M227 289L228 290L227 289z"/>
<path style="fill:#6c6355; stroke:none;" d="M228.667 289.333L229.333 289.667L228.667 289.333M251.667 289.333L252.333 289.667L251.667 289.333z"/>
<path style="fill:#a09582; stroke:none;" d="M253 289L254 290L253 289M280 289L281 290L280 289z"/>
<path style="fill:#6c6355; stroke:none;" d="M285 289L286 290L285 289M196 290L197 291L196 290M201 290L202 291L201 290z"/>
<path style="fill:#e5c18b; stroke:none;" d="M202 290L203 291L202 290M231.667 290.333L232.333 290.667L231.667 290.333z"/>
<path style="fill:#a09582; stroke:none;" d="M233.667 290.333L234.333 290.667L233.667 290.333z"/>
<path style="fill:#6c6355; stroke:none;" d="M235 290L235 291L246 291L235 290z"/>
<path style="fill:#a09582; stroke:none;" d="M246.667 290.333L247.333 290.667L246.667 290.333z"/>
<path style="fill:#e5c18b; stroke:none;" d="M248.667 290.333L249.333 290.667L248.667 290.333z"/>
<path style="fill:#a09582; stroke:none;" d="M278 290L279 291L278 290z"/>
<path style="fill:#6c6355; stroke:none;" d="M279 290L280 291L279 290M284 290L285 291L284 290z"/>
<path style="fill:#a09582; stroke:none;" d="M197 291L198 292L197 291M203 291L204 292L203 291z"/>
<path style="fill:#6c6355; stroke:none;" d="M277 291L278 292L277 291z"/>
<path style="fill:#a09582; stroke:none;" d="M283 291L284 292L283 291z"/>
<path style="fill:#6c6355; stroke:none;" d="M204 292L205 293L204 292z"/>
<path style="fill:#e5c18b; stroke:none;" d="M205 292L206 293L205 292z"/>
<path style="fill:#6c6355; stroke:none;" d="M276 292L277 293L276 292M200 293L201 294L200 293z"/>
<path style="fill:#a09582; stroke:none;" d="M206 293L207 294L206 293z"/>
<path style="fill:#6c6355; stroke:none;" d="M274 293L275 294L274 293M280 293L281 294L280 293z"/>
<path style="fill:#a09582; stroke:none;" d="M201 294L202 295L201 294z"/>
<path style="fill:#e5c18b; stroke:none;" d="M208 294L209 295L208 294M272 294L273 295L272 294z"/>
<path style="fill:#a09582; stroke:none;" d="M279 294L280 295L279 294M209 295L210 296L209 295M271 295L272 296L271 295M204 296L205 297L204 296z"/>
<path style="fill:#6c6355; stroke:none;" d="M210 296L211 297L210 296z"/>
<path style="fill:#a09582; stroke:none;" d="M211 296L212 297L211 296M269 296L270 297L269 296z"/>
<path style="fill:#6c6355; stroke:none;" d="M276 296L277 297L276 296M206 297L207 298L206 297M212 297L213 298L212 297z"/>
<path style="fill:#a09582; stroke:none;" d="M213 297L214 298L213 297M267 297L268 298L267 297z"/>
<path style="fill:#6c6355; stroke:none;" d="M268 297L269 298L268 297M274 297L275 298L274 297z"/>
<path style="fill:#a09582; stroke:none;" d="M215 298L216 299L215 298M265 298L266 299L265 298M273 298L274 299L273 298z"/>
<path style="fill:#6c6355; stroke:none;" d="M209 299L210 300L209 299M217 299L218 300L217 299z"/>
<path style="fill:#e5c18b; stroke:none;" d="M218 299L219 300L218 299M262 299L263 300L262 299z"/>
<path style="fill:#6c6355; stroke:none;" d="M263 299L264 300L263 299M271 299L272 300L271 299M211 300L212 301L211 300M220 300L221 301L220 300z"/>
<path style="fill:#e5c18b; stroke:none;" d="M221 300L222 301L221 300M259 300L260 301L259 300z"/>
<path style="fill:#a09582; stroke:none;" d="M260 300L261 301L260 300z"/>
<path style="fill:#6c6355; stroke:none;" d="M269 300L270 301L269 300M213 301L214 302L213 301M222 301L223 302L222 301z"/>
<path style="fill:#a09582; stroke:none;" d="M223 301L224 302L223 301z"/>
<path style="fill:#e5c18b; stroke:none;" d="M224 301L225 302L224 301M256 301L257 302L256 301z"/>
<path style="fill:#a09582; stroke:none;" d="M257 301L258 302L257 301z"/>
<path style="fill:#6c6355; stroke:none;" d="M258 301L259 302L258 301M267 301L268 302L267 301M216 302L217 303L216 302M226 302L226 303L229 303L226 302z"/>
<path style="fill:#a09582; stroke:none;" d="M229.667 302.333L230.333 302.667L229.667 302.333z"/>
<path style="fill:#e5c18b; stroke:none;" d="M231 302L232 303L231 302M249 302L250 303L249 302z"/>
<path style="fill:#a09582; stroke:none;" d="M250.667 302.333L251.333 302.667L250.667 302.333z"/>
<path style="fill:#6c6355; stroke:none;" d="M252 302L252 303L255 303L252 302M264 302L265 303L264 302z"/>
<path style="fill:#a09582; stroke:none;" d="M219 303L220 304L219 303z"/>
<path style="fill:#6c6355; stroke:none;" d="M220 303L221 304L220 303M235 303L235 304L246 304L235 303M260 303L261 304L260 303z"/>
<path style="fill:#a09582; stroke:none;" d="M261 303L262 304L261 303z"/>
<path style="fill:#6c6355; stroke:none;" d="M222.667 304.333L223.333 304.667L222.667 304.333M257.667 304.333L258.333 304.667L257.667 304.333M226.667 305.333L227.333 305.667L226.667 305.333M253 305L254 306L253 305z"/>
<path style="fill:#a09582; stroke:none;" d="M254 305L255 306L254 305z"/>
<path style="fill:#6c6355; stroke:none;" d="M233.667 306.333L234.333 306.667L233.667 306.333M246.667 306.333L247.333 306.667L246.667 306.333z"/>
<path style="fill:#a09582; stroke:none;" d="M248 306L249 307L248 306z"/>
</svg>
